<svg width="133" height="50" viewBox="0 0 133 50" fill="none" xmlns="http://www.w3.org/2000/svg">
<path fill-rule="evenodd" clip-rule="evenodd" d="M46.3132 23.7764C46.3775 24.2332 46.4107 24.6995 46.4107 25.1732C46.4107 30.8735 41.603 35.4945 35.6723 35.4945C29.7417 35.4945 24.9339 30.8735 24.9339 25.1732C24.9339 19.4728 29.7417 14.8518 35.6723 14.8518C36.4502 14.8518 37.2087 14.9313 37.9396 15.0823C38.1685 14.8256 38.4198 14.5878 38.6905 14.3717C37.7279 14.1238 36.7162 13.9917 35.6723 13.9917C29.2475 13.9917 24.0391 18.9978 24.0391 25.1732C24.0391 31.3485 29.2475 36.3547 35.6723 36.3547C42.0972 36.3547 47.3056 31.3485 47.3056 25.1732C47.3056 24.4687 47.2378 23.7794 47.1082 23.111C46.8635 23.3536 46.5975 23.5764 46.3132 23.7764Z" fill="#F72D28"/>
<path d="M37.6598 34.0009C38.2562 32.9357 38.8155 31.8455 39.4621 30.8142C39.8248 30.2363 39.9165 29.7104 39.6347 29.103C39.591 29.0101 39.5583 28.9058 39.5451 28.8038C39.4206 27.8542 38.8635 27.1878 38.2125 26.5759C38.0749 26.4467 37.97 26.424 37.7952 26.4988C37.4326 26.6574 37.0612 26.798 36.6876 26.9204C36.1284 27.1017 36.0519 27.0654 35.7089 26.5781C36.2485 25.9934 36.775 25.4041 37.3212 24.8374C38.4769 23.6407 39.6413 22.4531 40.8057 21.2654C40.9848 21.0841 41.0547 20.8914 40.8581 20.692C40.6484 20.4812 40.4736 20.6104 40.3098 20.7849C38.7193 22.4553 37.1289 24.1235 35.5385 25.7962C35.4446 25.8959 35.3594 26.0047 35.2763 26.1021C34.7083 25.6987 34.6777 25.6375 34.8569 25.0029C34.9639 24.6244 35.095 24.2504 35.2414 23.8855C35.3135 23.7064 35.2982 23.5909 35.1627 23.4571C34.8591 23.1602 34.5751 22.8429 34.2736 22.546C34.1796 22.4531 34.0573 22.3737 33.935 22.3329C33.3254 22.1312 32.7116 21.934 32.0933 21.764C31.9535 21.7255 31.7569 21.7527 31.6302 21.8275C30.3958 22.5505 29.1702 23.2894 27.9141 23.9988C27.9752 23.9308 28.0342 23.8606 28.0976 23.7948C29.7645 22.07 31.4335 20.3475 33.0917 18.6159C33.2861 18.4141 33.4587 18.3484 33.7405 18.396C35.1169 18.6272 36.4976 18.8335 37.8783 19.0261C37.9919 19.042 38.1623 18.9173 38.2453 18.8085C39.1344 17.6277 40.0913 16.5125 41.2361 15.5855C42.0269 14.9441 42.8811 14.4115 43.8424 13.9922C43.9385 14.1848 44.0215 14.3571 44.1285 14.5724C42.2978 15.3589 40.8232 16.6123 39.5517 18.1399C38.2977 19.6471 37.2797 21.3175 36.3665 23.0718C38.8024 20.1548 41.2514 17.2605 44.5524 15.2524C45.2995 16.2791 46.2127 17.1132 47.3028 17.7659C46.9162 18.6975 46.4093 19.5315 45.8173 20.3135C44.9543 21.449 43.9363 22.4191 42.8221 23.2826C42.5425 23.5002 42.4617 23.7042 42.5185 24.0691C42.7326 25.4245 42.9073 26.7866 43.0777 28.1488C43.0974 28.2984 43.0471 28.5137 42.9488 28.6157C41.2361 30.4085 39.5124 32.1877 37.7887 33.9692C37.7625 33.9964 37.7275 34.0168 37.6947 34.0417L37.6598 34.01V34.0009Z" fill="#2F3235"/>
<path d="M34.7244 26.2081C33.8786 27.2296 33.0484 28.2316 32.2203 29.2337C32.2558 29.2724 32.2934 29.3136 32.3288 29.3523C33.3185 28.5342 34.1842 27.5563 35.103 26.6535C35.6875 27.0843 35.7782 27.324 35.5989 28.0259C35.3399 29.0377 34.7864 29.8534 34.0181 30.4464C33.0971 31.158 32.1251 31.7922 31.1576 32.4239C29.7495 33.3437 30.135 32.7435 28.7003 33.656L28.3125 32.8849C28.3125 32.8849 29.1141 31.0346 30.1679 29.1248C30.7214 28.1227 31.255 27.094 32.1628 26.4017C32.4971 26.1476 32.8558 25.9128 33.2321 25.7458C33.9805 25.4142 34.1908 25.4989 34.7288 26.2057L34.7244 26.2081Z" fill="#F72D28"/>
<path d="M44.579 14.2336C44.4695 14.0453 44.3695 13.871 44.2148 13.6036C44.9217 13.4711 45.5596 13.3223 46.2069 13.2409C46.5782 13.1945 46.9638 13.2409 47.3422 13.2688C47.7397 13.3014 47.942 13.5501 48.0157 13.9175C48.2323 15.0008 47.9586 16.0191 47.5992 17.0769C46.5378 16.5026 45.6952 15.7494 44.9503 14.7986C45.7404 14.4243 46.4925 14.0686 47.2446 13.7129C46.3164 13.6548 45.4834 13.9919 44.5814 14.2336H44.579Z" fill="#2F3235"/>
<path d="M14.1844 37L9.09256 28.0066H6.91035V37H2.28141V13.9214H10.9441C12.7296 13.9214 14.2505 14.241 15.5069 14.8803C16.7634 15.4975 17.7002 16.3461 18.3174 17.4262C18.9566 18.4842 19.2762 19.6745 19.2762 20.9971C19.2762 22.518 18.8354 23.8957 17.9537 25.1301C17.072 26.3424 15.7604 27.18 14.0191 27.6429L19.5407 37H14.1844ZM6.91035 24.5349H10.7788C12.0352 24.5349 12.9721 24.2374 13.5892 23.6422C14.2064 23.025 14.515 22.1764 14.515 21.0963C14.515 20.0382 14.2064 19.2227 13.5892 18.6496C12.9721 18.0544 12.0352 17.7568 10.7788 17.7568H6.91035V24.5349Z" fill="#F72D28"/>
<path d="M52.2588 25.4276C52.2588 23.1573 52.7658 21.1293 53.7797 19.3439C54.8157 17.5364 56.2154 16.1367 57.9788 15.1448C59.7643 14.1308 61.7591 13.6239 63.9634 13.6239C66.5424 13.6239 68.8017 14.2851 70.7415 15.6077C72.6812 16.9302 74.0369 18.7598 74.8083 21.0963H69.4851C68.956 19.9942 68.2066 19.1676 67.2367 18.6165C66.2889 18.0654 65.1868 17.7899 63.9303 17.7899C62.5857 17.7899 61.3844 18.1095 60.3264 18.7487C59.2904 19.3659 58.4748 20.2476 57.8797 21.3939C57.3065 22.5401 57.02 23.8847 57.02 25.4276C57.02 26.9486 57.3065 28.2932 57.8797 29.4614C58.4748 30.6077 59.2904 31.5004 60.3264 32.1396C61.3844 32.7568 62.5857 33.0654 63.9303 33.0654C65.1868 33.0654 66.2889 32.7899 67.2367 32.2388C68.2066 31.6657 68.956 30.8281 69.4851 29.726H74.8083C74.0369 32.0845 72.6812 33.9251 70.7415 35.2476C68.8238 36.5481 66.5644 37.1984 63.9634 37.1984C61.7591 37.1984 59.7643 36.7024 57.9788 35.7105C56.2154 34.6966 54.8157 33.2968 53.7797 31.5114C52.7658 29.726 52.2588 27.698 52.2588 25.4276ZM90.4667 37L82.0685 26.7171V37H77.4395V13.9214H82.0685V24.2704L90.4667 13.9214H96.0545L86.5321 25.3615L96.319 37H90.4667ZM102.67 17.6576V23.4438H110.44V27.1139H102.67V33.2307H111.432V37H98.0411V13.8884H111.432V17.6576H102.67ZM130.021 13.9214V17.6576H123.871V37H119.243V17.6576H113.093V13.9214H130.021Z" fill="#F72D28"/>
</svg>
