<svg width="36" height="34" viewBox="0 0 36 34" fill="none" xmlns="http://www.w3.org/2000/svg">
<path fill-rule="evenodd" clip-rule="evenodd" d="M33.2425 15.5168C33.3358 16.18 33.384 16.8569 33.384 17.5446C33.384 25.8199 26.4044 32.5285 17.7947 32.5285C9.18494 32.5285 2.20536 25.8199 2.20536 17.5446C2.20536 9.26919 9.18494 2.56067 17.7947 2.56067C18.9239 2.56067 20.0251 2.67607 21.0862 2.89527C21.4185 2.52258 21.7833 2.17737 22.1762 1.86365C20.7789 1.50386 19.3101 1.31201 17.7947 1.31201C8.46746 1.31201 0.90625 8.57958 0.90625 17.5446C0.90625 26.5096 8.46746 33.7771 17.7947 33.7771C27.1219 33.7771 34.6831 26.5096 34.6831 17.5446C34.6831 16.5218 34.5847 15.5211 34.3965 14.5508C34.0413 14.9031 33.6552 15.2264 33.2425 15.5168Z" fill="#F72D28"/>
<path d="M20.6795 30.3604C21.5453 28.8139 22.3572 27.2313 23.296 25.7341C23.8225 24.8951 23.9557 24.1317 23.5466 23.2499C23.4831 23.115 23.4355 22.9636 23.4165 22.8156C23.2357 21.4369 22.427 20.4695 21.4819 19.5811C21.2821 19.3936 21.1298 19.3607 20.8761 19.4693C20.3496 19.6996 19.8105 19.9036 19.2681 20.0813C18.4562 20.3445 18.3452 20.2919 17.8473 19.5844C18.6307 18.7355 19.395 17.88 20.1879 17.0574C21.8656 15.3201 23.5561 13.596 25.2465 11.8718C25.5066 11.6086 25.608 11.3289 25.3226 11.0393C25.0181 10.7333 24.7644 10.9209 24.5266 11.1742C22.2177 13.5992 19.9088 16.021 17.5999 18.4493C17.4635 18.594 17.3398 18.752 17.2193 18.8935C16.3947 18.3078 16.3503 18.2189 16.6104 17.2976C16.7658 16.7481 16.9561 16.2052 17.1686 15.6755C17.2732 15.4155 17.251 15.2477 17.0544 15.0536C16.6136 14.6226 16.2013 14.1619 15.7636 13.7309C15.6272 13.596 15.4496 13.4808 15.272 13.4216C14.3871 13.1287 13.4959 12.8425 12.5984 12.5957C12.3954 12.5397 12.11 12.5792 11.926 12.6878C10.1341 13.7374 8.35488 14.8101 6.53125 15.84C6.62005 15.7413 6.70568 15.6393 6.79766 15.5439C9.21754 13.0399 11.6406 10.5392 14.0478 8.02535C14.3301 7.73251 14.5806 7.63709 14.9897 7.70619C16.9878 8.0418 18.9922 8.34123 20.9966 8.62091C21.1616 8.64394 21.4089 8.46297 21.5295 8.30503C22.8203 6.59075 24.2094 4.97188 25.8713 3.62612C27.0194 2.69495 28.2595 1.92171 29.6549 1.31299C29.7945 1.59267 29.915 1.84274 30.0704 2.15532C27.4127 3.29708 25.2719 5.11666 23.426 7.33437C21.6056 9.52247 20.1276 11.9475 18.8019 14.4942C22.3382 10.2595 25.8935 6.05771 30.6857 3.14244C31.7703 4.63298 33.096 5.84383 34.6786 6.79146C34.1173 8.14381 33.3815 9.35466 32.522 10.4898C31.2692 12.1383 29.7913 13.5466 28.1738 14.8002C27.7679 15.1161 27.6505 15.4122 27.733 15.942C28.0438 17.9096 28.2975 19.8871 28.5449 21.8647C28.5734 22.0818 28.5005 22.3944 28.3578 22.5425C25.8713 25.1452 23.3689 27.7281 20.8666 30.3143C20.8285 30.3538 20.7778 30.3834 20.7302 30.4196L20.6795 30.3736V30.3604Z" fill="#2F3235"/>
<path d="M16.4177 19.0472C15.1899 20.5301 13.9846 21.9848 12.7825 23.4396C12.8339 23.4958 12.8886 23.5555 12.94 23.6118C14.3767 22.4241 15.6335 21.0044 16.9674 19.6938C17.8159 20.3192 17.9477 20.6671 17.6873 21.6861C17.3113 23.155 16.5077 24.3391 15.3924 25.2C14.0553 26.2331 12.6443 27.1538 11.2397 28.0709C9.19551 29.4062 9.7551 28.5348 7.67232 29.8596L7.10938 28.7401C7.10938 28.7401 8.27305 26.0539 9.80299 23.2815C10.6065 21.8267 11.3811 20.3333 12.6989 19.3283C13.1843 18.9593 13.705 18.6185 14.2514 18.376C15.3378 17.8946 15.6431 18.0176 16.4242 19.0437L16.4177 19.0472Z" fill="#F72D28"/>
<path d="M30.7161 1.66317C30.5572 1.38979 30.4121 1.13667 30.1875 0.748543C31.2137 0.556168 32.1397 0.340168 33.0795 0.222044C33.6185 0.154544 34.1782 0.222044 34.7276 0.262544C35.3046 0.309793 35.5983 0.670918 35.7054 1.20417C36.0198 2.77692 35.6225 4.25517 35.1008 5.79079C33.5597 4.95717 32.3366 3.86367 31.2551 2.48329C32.4023 1.93992 33.4941 1.42354 34.5859 0.907168C33.2384 0.822793 32.0291 1.31217 30.7196 1.66317H30.7161Z" fill="#2F3235"/>
</svg>
