<svg width="586" height="170" viewBox="0 0 586 170" fill="none" xmlns="http://www.w3.org/2000/svg">
<path d="M546.136 43.2774C548.372 41.1857 550.539 39.0044 552.885 37.0322C554.193 35.9266 554.802 34.7513 554.543 33.088C554.503 32.829 554.493 32.5601 554.543 32.3111C554.912 29.9604 554.024 27.9584 552.845 26.0161C552.596 25.6078 552.356 25.4683 551.867 25.5281C550.859 25.6376 549.84 25.6974 548.822 25.7074C547.304 25.7273 547.144 25.5779 546.645 24.1635C548.402 23.1775 550.12 22.1615 551.887 21.2252C555.601 19.2332 559.335 17.281 563.069 15.3188C563.638 15.02 563.958 14.6116 563.608 13.9941C563.239 13.3367 562.72 13.516 562.18 13.8048C557.049 16.5937 551.917 19.3826 546.775 22.1715C546.476 22.3408 546.186 22.53 545.906 22.7093C544.788 21.3248 544.758 21.1555 545.657 19.781C546.196 18.9642 546.785 18.1674 547.414 17.4104C547.724 17.0319 547.763 16.7531 547.524 16.3347C546.985 15.4084 546.515 14.4423 545.976 13.506C545.807 13.2171 545.567 12.9383 545.287 12.749C543.92 11.8127 542.552 10.8964 541.144 10.0298C540.825 9.83064 540.325 9.75096 539.956 9.83064C536.382 10.6275 532.817 11.4841 529.203 12.2311C529.403 12.1116 529.602 11.992 529.802 11.8825C535.164 9.0139 540.525 6.16525 545.876 3.27676C546.495 2.93811 546.975 2.90823 547.644 3.23692C550.879 4.81065 554.153 6.32462 557.428 7.8087C557.698 7.92823 558.207 7.7589 558.496 7.55969C561.551 5.40827 564.706 3.47597 568.211 2.11141C570.627 1.17514 573.123 0.537678 575.809 0.258789C575.909 0.786685 575.988 1.26478 576.098 1.85244C571.006 2.36041 566.454 4.24291 562.21 6.94215C558.027 9.5916 554.313 12.8088 550.789 16.3048C558.906 11.1753 567.053 6.11545 576.657 3.7947C577.766 6.79275 579.423 9.45215 581.659 11.8227C580.032 13.755 578.185 15.3586 576.158 16.773C573.203 18.8348 569.988 20.3886 566.613 21.6137C565.765 21.9225 565.415 22.3408 565.295 23.2571C564.846 26.6436 564.307 30.0102 563.748 33.3768C563.688 33.7453 563.408 34.2234 563.099 34.3928C557.578 37.3809 552.027 40.3291 546.486 43.2873C546.396 43.3371 546.296 43.357 546.206 43.3869L546.146 43.2873L546.136 43.2774Z" fill="white"/>
<path d="M544.148 23.6057C541.392 25.2591 538.696 26.8826 536.001 28.5061C536.061 28.6257 536.121 28.7352 536.18 28.8547C539.146 27.7591 541.921 26.2153 544.767 24.8806C545.905 26.2651 545.965 26.8726 545.056 28.297C543.738 30.3587 541.841 31.7731 539.575 32.5301C536.849 33.4365 534.054 34.1337 531.258 34.8409C527.205 35.8568 523.131 36.7931 519.008 37.7692C519.198 37.5999 519.367 37.4306 519.547 37.2712C523.381 33.7652 527.195 30.2492 531.049 26.773C533.075 24.9403 535.072 23.0479 537.748 22.1714C538.736 21.8526 539.765 21.5937 540.803 21.4941C542.85 21.3048 543.309 21.6435 544.148 23.6156V23.6057Z" fill="#EB0100"/>
<path d="M577.975 1.71317C577.856 1.2052 577.756 0.727102 577.586 0C579.283 0.179286 580.841 0.268928 582.358 0.517936C583.237 0.65738 584.076 1.03587 584.914 1.36456C585.793 1.71317 586.082 2.43031 585.993 3.32674C585.723 5.98614 584.395 8.15749 582.838 10.3687C580.831 8.3069 579.443 5.98614 578.415 3.27694C580.471 2.94825 582.428 2.63948 584.385 2.32075C582.318 1.55381 580.192 1.76297 577.975 1.71317Z" fill="white"/>
<path d="M102.872 83.6047H94.7646L76.4039 55.9349V83.6047H68.2969V43.2256H76.4039L94.7646 70.9551V43.2256H102.872V83.6047Z" fill="white"/>
<path d="M113.289 82.0707C110.823 80.7061 108.876 78.7639 107.468 76.2638C106.06 73.7638 105.352 70.8753 105.352 67.5984C105.352 64.3214 106.08 61.4329 107.528 58.9329C108.976 56.4329 110.953 54.4906 113.459 53.126C115.965 51.7615 118.77 51.0742 121.855 51.0742C124.94 51.0742 127.746 51.7615 130.252 53.126C132.758 54.4906 134.745 56.4329 136.192 58.9329C137.64 61.4329 138.359 64.3214 138.359 67.5984C138.359 70.8753 137.61 73.7638 136.132 76.2638C134.645 78.7639 132.638 80.7061 130.112 82.0707C127.586 83.4353 124.761 84.1225 121.626 84.1225C118.491 84.1225 115.755 83.4353 113.289 82.0707ZM125.769 76.0049C127.057 75.2977 128.095 74.222 128.864 72.7976C129.633 71.3733 130.022 69.6402 130.022 67.5984C130.022 64.5605 129.223 62.2198 127.616 60.5764C126.009 58.9429 124.052 58.1261 121.735 58.1261C119.419 58.1261 117.482 58.9429 115.915 60.5764C114.347 62.2098 113.568 64.5505 113.568 67.5984C113.568 70.6462 114.327 72.9769 115.855 74.6204C117.382 76.2539 119.299 77.0706 121.616 77.0706C123.083 77.0706 124.461 76.712 125.759 76.0049H125.769Z" fill="white"/>
<path d="M361.932 54.7499C364.348 57.1603 365.546 60.5169 365.546 64.8297V83.6049H357.439V65.9253C357.439 63.4253 356.8 61.503 355.532 60.1782C354.264 58.8535 352.517 58.1862 350.32 58.1862C348.124 58.1862 346.376 58.8535 345.078 60.1782C343.781 61.503 343.142 63.4253 343.142 65.9253V83.6049H335.034V65.9253C335.034 63.4253 334.395 61.503 333.128 60.1782C331.85 58.8535 330.112 58.1862 327.916 58.1862C325.719 58.1862 323.912 58.8535 322.614 60.1782C321.316 61.503 320.677 63.4253 320.677 65.9253V83.6049H312.57V51.6024H320.677V55.477C321.716 54.1323 323.064 53.0666 324.701 52.2996C326.338 51.5327 328.145 51.1442 330.112 51.1442C332.618 51.1442 334.865 51.6721 336.832 52.7279C338.798 53.7837 340.326 55.2977 341.404 57.2599C342.443 55.4072 343.96 53.9331 345.947 52.8076C347.934 51.6921 350.09 51.1343 352.407 51.1343C356.34 51.1343 359.515 52.3395 361.932 54.7399V54.7499Z" fill="white"/>
<path d="M370.316 46.4329C369.368 45.5265 368.898 44.401 368.898 43.0563C368.898 41.7117 369.368 40.5862 370.316 39.6798C371.265 38.7734 372.453 38.3252 373.88 38.3252C375.308 38.3252 376.496 38.7834 377.445 39.6798C378.393 40.5862 378.863 41.7117 378.863 43.0563C378.863 44.401 378.393 45.5265 377.445 46.4329C376.496 47.3393 375.308 47.7875 373.88 47.7875C372.453 47.7875 371.265 47.3393 370.316 46.4329ZM377.874 51.6023V83.6047H369.767V51.6023H377.874Z" fill="white"/>
<path d="M387.605 82.7082C385.518 81.7619 383.871 80.487 382.653 78.8635C381.435 77.2499 380.776 75.4571 380.656 73.4949H388.823C388.973 74.7299 389.582 75.7459 390.65 76.5527C391.709 77.3595 393.037 77.7678 394.614 77.7678C396.191 77.7678 397.36 77.4591 398.228 76.8415C399.097 76.224 399.526 75.4371 399.526 74.471C399.526 73.4351 398.997 72.6482 397.939 72.1303C396.88 71.6124 395.193 71.0446 392.867 70.4271C390.471 69.8494 388.514 69.2518 386.986 68.6342C385.459 68.0167 384.151 67.0705 383.052 65.8055C381.954 64.5306 381.405 62.8174 381.405 60.666C381.405 58.8931 381.914 57.2795 382.943 55.8153C383.961 54.3512 385.429 53.1958 387.346 52.3491C389.263 51.5025 391.509 51.0742 394.095 51.0742C397.919 51.0742 400.964 52.0304 403.24 53.9328C405.517 55.8352 406.775 58.415 407.004 61.6421H399.247C399.127 60.3672 398.598 59.3612 397.659 58.6142C396.711 57.8671 395.453 57.4887 393.865 57.4887C392.398 57.4887 391.269 57.7576 390.481 58.2954C389.692 58.8333 389.292 59.5903 389.292 60.5465C389.292 61.6222 389.832 62.4389 390.91 62.9967C391.988 63.5545 393.665 64.1222 395.952 64.6999C398.268 65.2776 400.175 65.8752 401.683 66.4928C403.19 67.1103 404.488 68.0665 405.596 69.3514C406.695 70.6462 407.264 72.3494 407.304 74.461C407.304 76.3136 406.795 77.967 405.766 79.4312C404.738 80.8954 403.28 82.0408 401.363 82.8675C399.446 83.6942 397.22 84.1126 394.674 84.1126C392.128 84.1126 389.692 83.6444 387.605 82.6982V82.7082Z" fill="white"/>
<path d="M415.691 82.7082C413.604 81.7619 411.957 80.487 410.739 78.8635C409.521 77.2499 408.862 75.4571 408.742 73.4949H416.909C417.059 74.7299 417.668 75.7459 418.736 76.5527C419.795 77.3595 421.122 77.7678 422.7 77.7678C424.277 77.7678 425.446 77.4591 426.314 76.8415C427.183 76.224 427.612 75.4371 427.612 74.471C427.612 73.4351 427.083 72.6482 426.025 72.1303C424.966 71.6124 423.279 71.0446 420.953 70.4271C418.557 69.8494 416.6 69.2518 415.072 68.6342C413.545 68.0167 412.237 67.0705 411.138 65.8055C410.04 64.5306 409.491 62.8174 409.491 60.666C409.491 58.8931 410 57.2795 411.029 55.8153C412.047 54.3512 413.515 53.1958 415.431 52.3491C417.348 51.5025 419.595 51.0742 422.181 51.0742C426.005 51.0742 429.05 52.0304 431.326 53.9328C433.603 55.8352 434.86 58.415 435.09 61.6421H427.333C427.213 60.3672 426.684 59.3612 425.745 58.6142C424.797 57.8671 423.539 57.4887 421.951 57.4887C420.483 57.4887 419.355 57.7576 418.567 58.2954C417.778 58.8333 417.378 59.5903 417.378 60.5465C417.378 61.6222 417.918 62.4389 418.996 62.9967C420.074 63.5545 421.751 64.1222 424.038 64.6999C426.354 65.2776 428.261 65.8752 429.769 66.4928C431.276 67.1103 432.574 68.0665 433.682 69.3514C434.781 70.6462 435.35 72.3494 435.39 74.461C435.39 76.3136 434.88 77.967 433.852 79.4312C432.824 80.8954 431.366 82.0408 429.449 82.8675C427.532 83.6942 425.306 84.1126 422.76 84.1126C420.214 84.1126 417.778 83.6444 415.691 82.6982V82.7082Z" fill="white"/>
<path d="M468.162 70.0287H444.709C444.899 72.3395 445.707 74.1523 447.145 75.4571C448.573 76.7619 450.33 77.4192 452.417 77.4192C455.432 77.4192 457.569 76.1343 458.847 73.5447H467.593C466.664 76.6224 464.887 79.1623 462.261 81.1444C459.635 83.1265 456.41 84.1225 452.587 84.1225C449.501 84.1225 446.726 83.4353 444.28 82.0707C441.824 80.7061 439.917 78.7639 438.549 76.2638C437.181 73.7638 436.492 70.8753 436.492 67.5984C436.492 64.3214 437.171 61.3831 438.519 58.8731C439.867 56.3731 441.764 54.4408 444.19 53.0962C446.626 51.7515 449.422 51.0742 452.587 51.0742C455.751 51.0742 458.367 51.7316 460.783 53.0364C463.2 54.3412 465.067 56.2038 466.404 58.6142C467.732 61.0246 468.401 63.7836 468.401 66.9011C468.401 68.0565 468.321 69.0924 468.172 70.0187L468.162 70.0287ZM459.995 64.6003C459.955 62.5186 459.206 60.8552 457.738 59.6002C456.271 58.3452 454.474 57.7177 452.357 57.7177C450.35 57.7177 448.663 58.3253 447.295 59.5405C445.927 60.7556 445.088 62.4389 444.779 64.6003H460.005H459.995Z" fill="white"/>
<path d="M470.671 58.8836C471.959 56.3836 473.726 54.4513 475.973 53.1066C478.209 51.762 480.705 51.0847 483.441 51.0847C485.528 51.0847 487.514 51.5429 489.401 52.4393C491.288 53.3457 492.796 54.5509 493.914 56.0449V40.8555H502.141V83.6051H493.914V78.864C492.906 80.4477 491.498 81.7126 489.691 82.6788C487.874 83.6449 485.777 84.123 483.381 84.123C480.675 84.123 478.209 83.4258 475.973 82.0413C473.736 80.6569 471.969 78.7046 470.671 76.1747C469.373 73.6548 468.734 70.7563 468.734 67.4794C468.734 64.2024 469.383 61.3737 470.671 58.8737V58.8836ZM492.826 62.549C492.047 61.1446 491.009 60.0689 489.701 59.3119C488.393 58.5549 486.975 58.1864 485.478 58.1864C483.98 58.1864 482.582 58.5549 481.304 59.282C480.026 60.0191 478.998 61.0848 478.209 62.4893C477.421 63.8937 477.021 65.557 477.021 67.4893C477.021 69.4216 477.421 71.095 478.209 72.5392C478.998 73.9834 480.046 75.089 481.334 75.856C482.622 76.6229 484.01 77.0114 485.478 77.0114C486.945 77.0114 488.393 76.6329 489.701 75.8859C491.009 75.1388 492.057 74.0532 492.826 72.6488C493.595 71.2444 493.984 69.5611 493.984 67.5889C493.984 65.6168 493.595 63.9435 492.826 62.5391V62.549Z" fill="white"/>
<path d="M120.902 70.377C120.822 70.3969 120.772 70.4168 120.742 70.4566C120.882 70.4267 120.922 70.3969 120.902 70.377Z" fill="#F72D28"/>
<path d="M189.439 72.7378L188.641 72.7577C189.16 72.7577 189.359 72.7577 189.439 72.7378Z" fill="#F72D28"/>
<path d="M79.8559 68.3351C79.9158 68.3351 79.9158 68.3252 79.9557 68.3152C79.3267 68.2853 78.4681 68.2455 77.0703 68.1758L79.8559 68.3351Z" fill="#F72D28"/>
<path d="M335.738 75.0386H334.82C335.229 75.0386 335.499 75.0485 335.738 75.0386Z" fill="#F72D28"/>
<path d="M249.023 74.1323C249.293 74.1025 249.742 74.0925 250.191 74.0826C249.632 74.0726 249.183 74.0826 249.023 74.1323Z" fill="#F72D28"/>
<path d="M58.2578 65.397L59.4154 65.5861C59.3954 65.5264 58.9863 65.4467 58.2578 65.397Z" fill="#F72D28"/>
<path d="M16.6094 64.0522C16.6094 64.0522 16.6496 64.0723 16.72 64.0924C16.7803 64.0823 16.72 64.0723 16.6094 64.0522Z" fill="#F72D28"/>
<path d="M32.8359 65.3373C33.1852 65.3373 33.5943 65.3373 34.0035 65.3373C33.5045 65.3174 32.8759 65.2875 32.8359 65.3373Z" fill="#F72D28"/>
<path d="M34.5666 65.3271C34.387 65.3271 34.1974 65.3271 34.0078 65.3271C34.3172 65.3271 34.5766 65.3471 34.5666 65.3271Z" fill="#F72D28"/>
<path d="M468.205 72.5981L467.945 72.6579C468.195 72.638 468.235 72.6181 468.205 72.5981Z" fill="#F72D28"/>
<path d="M80.3125 66.0643C81.5206 65.9946 83.9766 66.2536 83.9667 66.1341C82.6887 66.0942 80.8916 65.9149 80.3125 66.0643Z" fill="#F72D28"/>
<path d="M496.008 67.459L496.806 67.4092C496.427 67.4291 496.187 67.449 496.008 67.459Z" fill="#F72D28"/>
<path d="M243.46 74.0128C243.281 74.0128 243.031 73.9929 242.822 73.9829C242.752 74.0128 242.792 74.0327 243.46 74.0128Z" fill="#F72D28"/>
<path d="M295.07 71.5524C295.979 71.5823 297.277 71.5126 297.976 71.4429C297.057 71.4429 296.199 71.4429 295.07 71.5524Z" fill="#F72D28"/>
<path d="M304.214 71.5526C304.095 71.5526 304.005 71.5427 303.875 71.5327C303.995 71.5327 304.105 71.5427 304.214 71.5526Z" fill="#F72D28"/>
<path d="M245.711 70.7954C245.711 70.7954 245.711 70.7954 245.711 70.8055C245.731 70.8055 245.741 70.8055 245.741 70.7954H245.711Z" fill="#F72D28"/>
<path d="M257.305 70.8853C257.514 70.9052 257.794 70.9251 258.103 70.945C257.903 70.9251 257.644 70.8952 257.305 70.8853Z" fill="#F72D28"/>
<path d="M263.729 74.6332C260.447 74.7557 256.673 74.9036 252.911 75.0418C251.03 75.106 249.149 75.2001 247.329 75.226C245.511 75.202 243.758 75.1899 242.131 75.1716C240.712 75.3894 238.643 75.3679 236.572 75.3964L236.359 75.0901L234.628 75.1686C233.925 75.0677 235.957 75.1281 234.717 75.0013L234.059 75.1817C233.925 75.0677 229.617 75.0498 232.525 74.8661L225.802 74.7864C224.319 74.7623 224.927 75.0304 223.284 74.9416C222.952 74.8517 223.878 74.8892 223.744 74.7752C218.816 74.4888 218.026 75.3054 213.43 75.1089L213.821 75.0704C213.43 75.1088 212.862 75.122 212.389 75.1279C212.149 75.1308 211.94 75.1346 211.784 75.1399C211.629 75.1353 211.532 75.1525 211.526 75.1623C212.109 75.4796 212.356 75.0069 213.757 75.1986C213.63 75.4548 212.006 75.3166 212.09 75.5191C211.016 75.4171 210.378 75.5482 209.438 75.5603C207.84 75.3728 205.54 75.4645 204.337 75.2487C203.551 75.3254 202.671 75.5692 200.984 75.5591C199.781 75.3434 201.276 75.3678 199.634 75.269L199.366 75.421C198.021 75.3811 198.232 75.3373 198.282 75.2688C196.84 75.246 197.073 75.4629 195.27 75.3393L196.285 75.1995C194.943 75.2496 194.4 75.2035 192.543 75.0983C192.587 75.0096 193.334 75.0518 193.877 75.0979C192.874 74.8281 192.141 75.1163 191.598 75.0702C191.751 75.1448 193.041 75.2331 192.403 75.3542C191.484 75.2868 190.431 75.4756 189.779 75.2662L190.793 75.1663C188.86 75.1989 189.76 75.3156 187.551 75.15C187.671 75.1535 187.612 75.1018 187.661 75.0732C186.257 75.2015 184.434 74.9473 182.367 74.8359L182.762 74.8177C181.924 74.8328 181.466 74.9492 181.012 74.9157C182.186 75.0606 181.862 75.091 181.966 75.234C180.414 74.9079 179.579 75.4231 177.038 75.1576C177.082 75.0689 177.701 74.9973 178.397 75.118C179.277 74.8941 179.391 74.6875 180.943 74.6336C179.979 74.6549 178.843 74.6312 179.085 74.5384L178.773 74.7691C178.187 74.7417 177.727 74.7181 177.285 74.6949C177.029 74.8373 178.461 74.9999 177.101 75.0395C175.575 75.0542 176.296 74.7555 176.059 74.8585C173.959 74.8561 175.179 75.0824 173.162 74.9124C173.366 74.8985 173.761 74.8802 173.934 74.9054C172.491 74.7425 170.371 74.7995 169.956 74.4771C170.173 74.4236 170.217 74.3349 170.766 74.3812L170.741 74.4205C172.343 74.2781 169.407 74.4208 169.917 74.176C170.02 74.339 167.983 74.2085 167.07 74.1414L167.357 74.3299C164.282 74.7286 167.535 73.9852 164.51 73.9153C162.588 73.9482 165.231 73.9967 164.05 74.0716C162.754 73.9831 162.275 73.7989 160.379 73.7925C159.855 73.697 158.776 73.5549 158.699 73.3426C157.543 73.3682 155.2 73.0886 154.543 73.2591C156.504 73.5174 156.515 73.1377 158.808 73.5058L158.156 73.6765C156.561 73.5891 154.515 73.5983 153.423 73.4759C153.643 73.5224 153.744 73.5754 153.599 73.6111C151.326 73.5836 150.663 73.7539 148.454 73.5882C148.173 73.3898 149.462 73.4882 150.407 73.5062C148.989 73.2941 148.919 73.432 146.71 73.2664C146.601 73.1031 148.198 73.3406 148.459 73.1983L146.008 73.1255C146.008 73.1255 146.008 73.1255 146.009 73.1055C145.643 73.3547 144.145 73.0002 142.643 73.0055C139.1 72.8402 138.54 73.1736 136.567 73.305C136.043 73.2095 135.89 73.1249 136.113 73.0815C136.982 73.2374 136.829 73.1428 137.136 73.0819C135.94 73.0764 134.529 72.6444 135.2 72.5943C133.299 72.5279 135.877 72.7845 134.716 72.78L132.114 72.5626C132.414 72.7216 133.333 72.8189 131.98 72.8287C130.845 72.775 130.296 72.7087 128.81 72.5845C129.027 72.5309 128.351 72.3408 129.467 72.434C128.752 72.3227 127.63 72.2394 127.196 72.3365C128.816 72.5847 124.53 72.2573 125.73 72.553L124.11 72.3048C124.48 72.3358 124.524 72.2471 125.073 72.3134C124.619 72.0699 123.739 72.2738 123.172 72.2569C122.6 72.1699 121.12 72.046 120.997 71.9523C120.482 71.967 119.229 71.8298 119 71.7029C118.234 71.6802 118.93 71.8309 118.707 71.8843L116.111 71.6671C115.977 71.5431 115.778 71.1972 116.167 71.1887C115.179 71.2194 115.798 71.5078 114.318 71.3838C115.179 71.2194 112.365 71.0558 113.609 70.8827C112.766 70.6476 110.342 70.4656 109.003 70.4258C108.168 70.541 110.445 70.6387 110.35 70.8159C106.593 70.5942 106.339 71.0867 103.59 70.785L104.304 70.8963C102.582 70.8651 102.774 70.8608 101.766 70.9408C102.251 70.7452 99.8443 70.1737 97.0193 69.9997C96.7769 70.1025 98.5886 70.3464 98.1175 70.4924L96.2419 70.3867C96.105 70.3626 96.3151 70.3388 96.5608 70.3261C94.875 70.276 93.4476 69.7836 92.95 70.0188L91.2587 69.5485L91.9289 69.7485C91.6927 69.8414 89.8051 69.7354 89.4097 69.7536C87.4776 69.7362 86.782 69.5855 85.7417 69.3546C86.0732 69.4745 86.8965 69.7589 85.3789 69.6838C85.4141 69.3049 82.2132 69.2998 82.2669 69.1013C81.6518 69.0631 80.5748 68.861 80.4986 69.0088L80.613 68.7822C80.4537 69.1075 78.2275 68.9213 76.5183 68.8505C76.9259 68.4226 74.6427 68.7448 73.9088 68.2729C73.5711 68.5629 70.8725 68.1627 70.561 68.3735C69.2485 68.2445 69.3943 67.9688 69.0631 67.8389L68.4453 67.8906C67.7936 67.6712 65.3309 67.388 63.8725 67.1346L62.4925 67.2636L61.995 67.0888C61.7724 67.1322 60.638 67.0485 61.3327 67.2292L60.5995 67.1374C60.5248 67.4352 59.5593 67.1065 58.0761 67.0824C57.7377 66.9923 57.8292 66.9351 58.1526 66.9247C57.4191 66.8429 57.7398 66.7224 57.3434 66.5706C57.8599 66.7059 54.667 66.8311 56.6432 67.1798C56.7708 67.3137 55.6108 67.2892 54.8907 67.1578L54.4635 66.835L53.5782 67.0288C52.4438 66.9451 51.9718 66.721 51.0541 66.5937C51.9912 66.6716 53.1694 66.2865 50.7476 66.0346C52.0252 66.1325 52.6558 66.0513 53.3197 66.061C52.819 65.9961 52.5694 65.9387 53.3541 65.912C51.4548 65.7956 52.7108 66.0129 50.837 65.8472C50.9517 65.6106 50.4352 65.4752 48.8034 65.2167L50.0146 65.5327C49.9539 65.5609 49.8699 65.5684 49.774 65.5756C50.2385 65.6494 50.3686 65.7033 50.4612 65.806C50.0915 65.765 48.2751 65.8811 47.9695 65.692C49.8309 66.2774 44.6621 65.6437 45.8542 65.9992C45.6373 66.0527 44.3247 65.9237 44.1971 65.7899C45.7774 65.7669 43.0307 65.3752 43.2982 65.2332C42.7114 65.2457 44.5213 65.5495 43.7251 65.5659C42.788 65.488 42.1127 65.2579 41.5962 65.1226L41.9913 65.1143L40.5571 64.8517C40.3147 64.9545 41.9405 65.2128 40.6086 65.1332C40.2642 65.043 38.9263 64.9632 38.9768 64.8747C39.62 64.7738 39.1737 64.4905 40.3084 64.5643C39.3656 64.4762 36.3765 64.1874 37.5743 64.553L36.4534 64.4197C37.154 64.6006 39.1104 65.0087 36.8549 64.8017L36.8803 64.7524L35.3059 64.7757L34.6298 64.5756C34.6456 64.646 34.3934 64.6785 33.815 64.6113C33.6682 64.517 33.1203 64.4307 33.1711 64.3322C31.4888 64.1622 31.6162 64.306 31.3932 64.3594C30.4501 64.2813 30.1001 64.1809 30.5517 64.0843C29.2643 63.9161 27.0147 63.7092 26.1481 63.4734C24.415 63.402 26.4984 63.5639 25.4792 63.6336C24.0135 63.02 19.7945 62.8446 16.9835 62.6011C17.7231 63.0831 16.2126 62.5682 15.677 62.8723C16.2892 62.8105 13.0262 62.2735 15.4928 62.4268L13.9884 62.3121C12.9751 61.9819 16.4804 62.4161 14.9508 61.9406C13.2685 61.7706 12.134 62.0969 10.1644 61.7284C10.8471 61.5087 8.62861 61.6628 9.14507 61.3981C9.56561 61.3406 10.1135 61.4268 10.6749 61.4635L10.3305 61.3733C6.64701 60.8938 9.24076 61.6009 7.29667 61.5832C5.04707 61.3763 5.53813 61.1609 5.41674 61.0173C5.07239 60.927 3.93803 60.8433 3.33932 60.8555C4.72235 60.8266 5.86277 61.3105 5.22523 61.4216C4.25699 60.9828 1.89206 61.0325 1.26766 61.104C4.46011 61.7989 3.49186 61.3601 6.48674 62.0592C6.90728 62.0016 6.85641 61.7001 8.66007 62.0137C7.51646 62.0397 8.72676 62.1857 9.0475 62.2653C8.7067 62.0551 10.308 62.3327 10.8649 62.3193C11.3617 62.514 9.75567 62.5963 11.5847 62.8607L11.9544 62.5016C12.6685 62.6329 11.6295 62.762 13.1653 62.8277C12.3302 62.9429 13.3944 63.1745 11.3226 63.0229C13.7702 63.6157 15.1217 63.2358 17.0464 63.303C16.8491 63.2972 16.8234 63.3564 16.6318 63.3607C17.0464 63.303 17.7916 63.3952 18.3592 63.422C19.621 63.6495 17.346 63.4919 17.6709 63.6316L19.7232 63.8326C19.7645 63.8538 19.7764 63.8542 19.7701 63.864C20.3145 63.8702 20.8283 63.8954 21.0106 64.0009C20.3925 64.0625 20.1441 64.1651 19.7296 64.2228L21.9029 64.1774C21.6605 64.2802 23.668 64.5799 22.1263 64.5141L25.3132 64.7888L25.568 65.0764C26.3329 65.1091 26.3583 65.0599 25.4466 64.9328C26.5304 65.105 30.3035 64.9871 29.6977 65.4391C32.2091 65.4937 33.1074 65.6704 36.1413 65.8606C33.8021 65.8511 38.7927 66.4394 36.3201 66.286C37.7603 66.5488 38.0726 66.308 39.2135 66.3719C40.278 66.5936 39.7875 66.789 38.6275 66.7645L39.9911 66.7851L39.9657 66.8343L41.1511 66.8095C42.3878 67.0763 41.4002 67.087 42.6876 67.2552L42.9805 67.0639L43.8474 67.2897C43.5224 67.15 44.2933 67.1829 45.2301 67.2708L45.2047 67.32L46.3453 67.3939C45.214 67.4103 47.3817 67.5547 46.852 67.659C47.8241 67.7679 47.848 67.7686 49.6029 67.9107L49.3031 67.7318C51.6035 67.8402 49.3859 67.9643 51.2407 68.1694L51.1324 67.9862C53.7841 68.555 55.6767 68.2912 57.6394 68.6896C56.5048 68.6159 56.7792 68.8441 56.8046 68.7948C58.5126 68.9056 61.279 69.2378 63.0506 69.2204C63.6814 69.5392 63.8284 69.6236 65.6324 69.9272C66.9452 70.0462 67.1428 70.0421 67.5825 69.9451C68.8502 70.1728 71.2462 70.284 71.3006 70.4657C71.6028 70.3646 72.4461 70.5797 73.1539 70.5207L73.301 70.6051L73.1984 70.432C75.4439 70.9788 77.0316 70.5059 79.2965 71.0033L78.901 71.0215L79.8641 71.0301C80.0112 71.1145 79.6217 71.1329 79.5712 71.2215L84.036 71.5841L83.162 71.3982C84.1 71.446 84.7435 71.3351 85.8151 71.517C84.0166 71.6336 87.2953 71.641 87.5763 71.8494L86.6132 71.8407C87.4853 71.8933 87.8891 71.862 87.8247 71.7467C89.5279 71.8173 88.9735 72.1509 90.549 72.0877L89.4328 71.9945C89.1073 71.8748 89.9173 71.7989 90.6634 71.8611C90.8419 71.8964 91.365 72.0119 90.7911 71.9949C92.1302 72.0347 94.1338 72.2642 94.7268 72.2418C95.4478 72.3433 95.2054 72.4461 94.8099 72.4643C97.6741 72.5294 96.0986 72.5926 98.9746 72.6581L98.9241 72.7466L99.9126 72.706L101.31 73.0075L100.812 72.8527C101.749 72.9105 102.342 72.8882 103.433 73.0206L102.988 73.1274C105.641 73.2462 106.043 73.5882 108.568 73.5832C108.741 73.6183 108.346 73.6366 108.142 73.6406C110.489 73.6003 109.896 74.0127 112.256 73.9228C112.111 73.9585 112.36 74.0359 112.27 74.0632L113.341 74.0551L113.252 74.2324L114.138 74.0287L114.789 74.2681L115.209 74.2106C116.333 74.644 117.965 74.5025 119.51 74.8784L119.254 74.6308C123.22 74.4486 128.255 75.5683 133.026 75.7001L132.931 75.8773L134.907 75.806C135.954 76.0271 134.27 75.917 134.59 76.0266C136.694 76.0891 135.475 75.8328 137.926 75.8957C139.172 76.0727 137.486 76.0126 136.893 76.045C139.19 76.0532 142.581 76.104 144.198 76.272C144.234 76.2531 144.337 76.2262 144.254 76.2037C145.786 76.1892 147.803 76.3592 149.489 76.4193C149.444 76.4979 149.026 76.4955 148.607 76.4931C149.21 76.531 150.039 76.6256 150.561 76.5611L149.923 76.6922C151.213 76.7805 153.715 76.7449 153.996 76.9432C153.843 76.8687 153.913 76.7407 155.03 76.7939C155.638 77.092 158.075 76.8144 159.863 77.0376C159.646 77.0911 158.331 77.052 158.702 77.073C159.596 77.1796 160.412 77.0939 161.204 77.0374L160.955 77.14L165.143 77.1744C165.75 77.4725 169.088 77.3016 168.795 77.493C170.289 77.5674 167.55 77.316 169.433 77.3719C169.932 77.5067 171.144 77.3927 171.055 77.5601L170.851 77.5741L172.172 77.6133L171.336 77.7585C172.473 77.7723 173.314 77.6372 173.372 77.5089C174.445 77.6508 175.977 77.6364 176.462 77.8208L176.06 77.8489C179.086 77.9088 181.048 78.5371 183.435 78.348C183.613 78.3833 183.588 78.4226 183.218 78.4016L185.082 78.497L184.63 78.6035L187.726 78.5355L187.681 78.6242C189.718 78.7347 192.909 78.8695 195.541 78.8977L195.145 78.936C198.014 78.8312 197.912 79.0482 200.014 78.9806C199.942 78.9985 199.87 79.0064 199.792 79.014L201.682 79.0302L201.261 79.1077C202.666 78.9394 205.249 79.3962 204.393 79.2308C205.185 79.1543 206.551 79.0749 206.788 78.9719C208.846 78.983 207.287 79.0867 208.559 79.1745C210.048 79.1988 210.315 79.0567 212.329 79.1565L212.284 79.2452C213.23 79.2433 213.818 79.1808 215.134 79.1899L214.744 79.2283C216.891 79.0721 217.416 79.5177 219.108 79.1579C220.003 79.2346 221.715 79.2054 221.627 79.3728C224.303 79.3223 226.38 79.274 229.033 79.2228C229.455 79.5154 229.601 79.2097 231.206 79.3874L231.091 79.234C234.842 79.2554 239.143 79.6832 243.278 79.6661L243.393 79.8195L244.223 79.6642C245.335 79.6972 246.531 79.7327 247.751 79.759C248.972 79.7453 250.223 79.7324 251.444 79.7187C253.886 79.6813 256.215 79.6405 257.993 79.6133C259.157 79.5078 260.929 79.2805 262.777 79.2954L262.585 79.3197C265.803 79.1553 269.205 79.0163 272.717 79.0307C272.5 79.1042 272.846 79.1345 272.455 79.1929C273.292 79.0078 274.515 79.1341 275.269 79.1265L274.387 79.0303C275.385 78.8599 276.818 78.9725 277.323 79.0675L278.903 78.8644C279.004 78.8775 279.165 78.9022 279.189 78.9229L279.467 78.8312L280.305 79.0161C280.695 78.9677 282.786 78.8698 283.439 78.6592C283.592 78.7238 285.064 78.7475 283.925 78.8036L289.689 78.7349L288.793 78.6783C288.684 78.525 290.417 78.3865 291.313 78.4431C290.136 78.5982 291.217 78.6603 291.717 78.7651C292.503 78.6685 291.038 78.645 291.448 78.5471C292.433 78.4264 294.518 78.3183 295.043 78.3839L294.454 78.4564C295.791 78.3861 296.407 78.5745 297.726 78.4936C298.911 78.2988 299.788 78.3649 299.544 78.1176C301.26 77.9686 300.204 78.2573 300.761 78.2538C301.568 78.0777 303.957 78.0187 304.264 78.1379C305.205 77.6958 308.875 78.0148 309.227 77.6653L310.63 77.7669C310.674 77.6783 310.956 77.4666 312.096 77.3605C313.172 77.3924 312.916 77.5648 313.243 77.6346L313.966 77.266C320.153 77.2598 328.317 76.5623 335.099 76.4638C338.126 76.2837 341.938 75.6669 345.47 75.4118L345.078 75.4902L348.592 75.2446L346.04 75.3388C346.809 75.2316 347.405 75.1093 348.143 75.0412C351.997 74.8157 357.14 74.4985 361.892 73.8796C364.957 73.2006 363.94 74.0304 366.876 73.4676C366.623 73.5301 366.532 73.5874 366.308 73.6508C369.474 73.2248 371.198 72.996 374.367 72.4701C374.013 72.8996 376.432 72.2514 376.15 72.463L376.413 72.2708C377.119 72.2718 378.782 72.0812 378.545 72.2242L379.938 71.8455L380.066 71.9893C381.921 71.7544 385.902 71.0826 386.89 71.282C391.481 70.4183 398.735 69.5237 404.506 68.8151C405.316 68.5692 406.998 68.3391 408.314 68.1382L409.722 68.09C411.059 67.7997 412.468 67.3015 413.715 67.2086C413.708 67.2284 413.66 67.2569 413.569 67.2842C414.924 67.0045 416.22 66.8829 417.482 66.4804C418.967 66.2345 420.42 66.0876 419.975 66.3445C420.105 65.9883 423.132 65.8382 423.132 65.8382C423.132 65.8382 427.912 65.0401 435.368 63.8015C439.093 63.0921 443.484 62.1025 448.284 61.085C450.68 60.5661 453.185 60.0305 455.757 59.4768C457.04 59.1949 458.346 58.9137 459.659 58.6327C460.973 58.3217 462.294 57.9509 463.633 57.6007C468.971 56.1691 474.447 54.6917 479.816 53.251C485.157 51.5095 490.383 49.8046 495.234 48.2286C497.644 47.2901 499.968 46.389 502.16 45.5341C503.256 45.0966 504.321 44.6782 505.344 44.2686C505.859 44.0638 506.362 43.8587 506.858 43.6635C507.35 43.438 507.835 43.2124 508.308 42.9965C512.095 41.2188 515.255 39.7626 517.493 38.3589C518.075 37.8861 519.754 36.9659 519.069 37.0656C520.364 36.374 521.024 36.3136 521.248 36.0102C519.447 36.8368 521.713 35.264 519.939 35.9713L521.041 35.334C521.246 35.0901 519.559 36.2801 519.792 35.9069L519.538 36.3994C518.629 36.7825 518.121 36.9474 517.791 36.9876C516.967 37.5132 516.497 38.2593 514.435 38.9781C514.623 38.8937 514.811 38.8093 514.993 38.7147C513.338 39.4356 513.946 38.9336 513.596 39.0232L513.965 38.8741L512.547 39.292C513.622 38.9539 515.327 37.9545 514.417 38.3575C512.433 39.0986 514.942 38.2231 513.468 38.8894C512.553 39.2922 512.783 39.009 512.81 38.8898L511.161 39.6009C511.197 39.4219 512.252 39.1433 511.566 39.2729L509.513 40.312C509.071 40.0788 507.276 41.4757 506.277 41.466C507.763 40.7901 506.13 41.3916 506.352 41.1682L502.673 42.549C502.318 42.6185 503.626 42.0773 503.069 42.3008C502.365 42.4498 501.941 42.8173 501.566 42.9462C501.237 42.9564 498.82 43.9647 498.888 43.6667C496.371 44.412 497.874 44.3766 495.531 45.0871C495.209 45.0475 497.377 44.3719 496.324 44.5906C495.519 44.9067 494.719 45.233 493.91 45.489C494.124 45.3353 494.358 45.1122 495.264 44.8091C488.685 46.7239 485.074 47.0266 479.106 49.1295C478.243 49.1839 479.707 48.8473 480.291 48.5147C475.962 50.0262 474.132 49.8018 470.427 50.8418L470.374 51.0103C467.77 51.4729 464.918 52.1983 461.987 52.9813C461.251 53.1794 460.515 53.3776 459.773 53.5756C459.032 53.7436 458.286 53.9014 457.539 54.0692C456.045 54.3949 454.558 54.7107 453.09 54.9872L453.798 54.9282C452.998 55.2445 451.697 55.5558 450.737 55.8373C450.583 55.7927 451.415 55.3674 449.715 55.807C450.069 55.7775 450.79 55.6689 450.583 55.7927C448.053 56.1676 444.134 56.9713 439.804 57.8927C438.72 58.1206 437.618 58.3578 436.498 58.5946C435.385 58.8215 434.249 58.9878 433.13 59.1846C430.881 59.5578 428.663 59.9219 426.582 60.2601C420.974 61.3236 415.122 62.3299 409.3 63.337C403.467 64.1438 397.657 64.9412 392.136 65.6973C393.818 65.4572 393.111 65.8963 391.84 65.9885C388.355 65.885 385.823 66.9099 382.272 67.0044C380.667 67.2667 379.098 67.4901 377.567 67.6846C376.798 67.7818 376.036 67.8692 375.279 67.9667C374.523 68.0242 373.773 68.092 373.024 68.1497C370.03 68.4008 367.096 68.6737 364.107 69.1849L363.986 69.0413C363.088 69.0546 362.851 69.1876 361.908 69.2996L361.928 69.2502C359.709 69.4043 357.022 69.8245 355.752 69.8767L355.675 70.0645C354.354 70.2052 354.989 69.9941 353.635 70.2239L353.674 70.135L352.103 70.4584C352.25 70.1327 348.383 70.7979 347.325 70.7565C345.619 70.9758 342.381 71.4296 339.796 71.6129C339.553 71.5456 338.641 71.6186 337.533 71.6656C336.425 71.7027 335.125 71.7441 334.113 71.784C330.174 72.057 324.544 72.4498 319.523 72.6906L319.613 72.8833L318.305 72.9745C318.305 72.9745 318.146 72.9198 318.344 72.8856C317.332 72.7156 315.321 73.1358 314.27 73.0546C314.93 73.1942 315.186 73.0318 315.936 72.9841C317.012 73.0161 315.987 73.2657 314.534 73.2525L314.565 73.2034L313.573 73.3639C313.464 73.2107 312.561 73.1939 312.445 73.0504C308.135 73.3424 305.196 73.7851 300.75 73.973C301.211 73.7767 297.554 74.2081 298.45 73.8547C295.78 74.1254 298.887 74.0677 297.67 74.3515C296.921 74.3893 296.139 74.5161 296.004 74.4121C296.354 74.3225 295.398 74.2641 296.011 74.2022C295.417 74.2546 294.818 74.2668 294.225 74.2892C294.058 74.2742 294.449 74.2158 294.647 74.1917C291.013 74.4438 288.204 74.1403 284.942 74.3934C284.699 74.5062 286.234 74.3918 285.997 74.5048C282.716 74.7973 283.099 74.3787 280.035 74.5976L280.668 74.4364C279.677 74.567 279.242 74.7041 277.623 74.616C277.341 74.4476 279.005 74.437 279.791 74.3404C278.672 74.3571 275.85 74.4733 276.708 74.6088C275.371 74.6991 274.885 74.5546 274.162 74.5231C274.137 74.5624 275.41 74.6102 274.623 74.7069C272.805 74.6529 269.991 74.7193 267.764 74.7531C267.784 74.7137 267.63 74.6491 267.822 74.6248C266.031 74.8916 266.222 74.4973 263.766 74.6043L263.729 74.6332Z" fill="#F72D28"/>
<path d="M244.213 70.756L245.711 70.7958C245.711 70.7958 245.781 70.7062 246.469 70.6763L244.203 70.756H244.213Z" fill="#F72D28"/>
<path d="M315.32 71.513C315.51 71.4931 315.69 71.4831 315.859 71.4731C315.5 71.4731 315.38 71.4931 315.32 71.513Z" fill="#F72D28"/>
<path d="M332.601 71.2539C331.363 71.3037 332.471 71.3435 333.07 71.3734C333.099 71.3335 333.07 71.2937 332.601 71.2539Z" fill="#F72D28"/>
<path d="M203.92 70.3968C204.179 70.3869 204.339 70.367 204.299 70.3271C203.95 70.3471 203.87 70.3769 203.92 70.3968Z" fill="#F72D28"/>
<path d="M92.6172 66.6323C92.7569 66.6522 92.8866 66.6622 93.0563 66.6821C92.9764 66.6622 92.8168 66.6423 92.6172 66.6323Z" fill="#F72D28"/>
<path d="M98.7734 67.2199C99.0728 67.2298 99.472 67.2498 100.031 67.2498C99.4819 67.2099 99.0928 67.2099 98.7734 67.2199Z" fill="#F72D28"/>
<path d="M230.906 71.0444C231.315 71.0444 231.725 71.0344 232.074 70.9946C231.435 70.9946 231.116 71.0145 230.906 71.0444Z" fill="#F72D28"/>
<path d="M101.32 67.2697L102.867 67.3593C102.867 67.3593 102.897 67.3394 102.897 67.3195L101.32 67.2598V67.2697Z" fill="#F72D28"/>
<path d="M90.6719 66.5126C91.2809 66.5524 92.0996 66.5923 92.6288 66.6221C91.86 66.5325 91.251 66.5026 90.6719 66.5126Z" fill="#F72D28"/>
<path d="M163.047 69.5005C163.047 69.5005 163.157 69.5005 163.217 69.5005C164.434 69.4508 163.676 69.4707 163.047 69.5005Z" fill="#F72D28"/>
<path d="M108.117 67.2394C108.177 67.2394 108.257 67.2494 108.327 67.2594L108.786 67.2295L108.127 67.2494L108.117 67.2394Z" fill="#F72D28"/>
<path d="M83.967 66.134C84.2564 66.134 84.5258 66.1439 84.7453 66.134C84.5058 66.114 84.2264 66.0941 83.8672 66.0742C83.947 66.1041 83.967 66.124 83.967 66.134Z" fill="#F72D28"/>
<path d="M139.754 68.5542C139.315 68.6139 139.145 68.6537 139.125 68.6936C139.644 68.7035 139.973 68.6836 139.754 68.5542Z" fill="#F72D28"/>
<path d="M123.636 59.5806C123.556 59.6005 123.506 59.6303 123.477 59.6702C123.616 59.6403 123.656 59.6104 123.636 59.5806Z" fill="#F72D28"/>
<path d="M191.955 62.5981H191.156C191.675 62.628 191.875 62.6181 191.955 62.5981Z" fill="#F72D28"/>
<path d="M82.7131 57.6379C82.773 57.6379 82.773 57.6279 82.8129 57.618C82.1839 57.5881 81.3253 57.5482 79.9375 57.4785L82.7231 57.6379H82.7131Z" fill="#F72D28"/>
<path d="M251.359 64.4908C251.629 64.4709 252.078 64.4709 252.517 64.4709C251.958 64.451 251.519 64.441 251.359 64.4908Z" fill="#F72D28"/>
<path d="M61.1953 54.2412L62.3529 54.4702C62.3329 54.4005 61.9238 54.3009 61.1953 54.2412Z" fill="#F72D28"/>
<path d="M19.6562 52.7471C19.6562 52.7471 19.6965 52.7772 19.7668 52.7972C19.8272 52.7872 19.7668 52.7671 19.6562 52.7471Z" fill="#F72D28"/>
<path d="M35.8438 54.2912C36.193 54.2912 36.6021 54.2813 37.0113 54.2713C36.5223 54.2514 35.8837 54.2215 35.8438 54.2912Z" fill="#F72D28"/>
<path d="M37.5666 54.2612C37.387 54.2612 37.1974 54.2712 37.0078 54.2811C37.3172 54.2911 37.5666 54.3011 37.5666 54.2612Z" fill="#F72D28"/>
<path d="M469.9 67.1899L469.641 67.2397C469.89 67.2198 469.93 67.2099 469.9 67.1899Z" fill="#F72D28"/>
<path d="M83.1875 54.9589C84.3956 54.8693 86.8417 55.1581 86.8317 55.0187C85.5637 54.9789 83.7666 54.7797 83.1875 54.9589Z" fill="#F72D28"/>
<path d="M497.758 62.9071L498.556 62.8872C498.177 62.8872 497.937 62.8972 497.758 62.9071Z" fill="#F72D28"/>
<path d="M245.82 64.2718C245.64 64.2618 245.39 64.2419 245.181 64.2319C245.111 64.2518 245.151 64.2718 245.82 64.2718Z" fill="#F72D28"/>
<path d="M297.305 62.7974C298.213 62.8372 299.511 62.7974 300.2 62.7376C299.292 62.7177 298.433 62.7177 297.305 62.7974Z" fill="#F72D28"/>
<path d="M306.433 62.9271C306.323 62.9271 306.223 62.9172 306.094 62.9072C306.213 62.9072 306.323 62.9172 306.433 62.9271Z" fill="#F72D28"/>
<path d="M248.094 61.2339C248.094 61.2339 248.094 61.2339 248.094 61.2439C248.114 61.2439 248.124 61.2439 248.124 61.2439H248.094V61.2339Z" fill="#F72D28"/>
<path d="M259.648 61.5723C259.848 61.6021 260.137 61.622 260.437 61.642C260.247 61.6121 259.978 61.5922 259.648 61.5723Z" fill="#F72D28"/>
<path d="M264.783 69.3466C261.513 69.3189 257.753 69.2865 254.005 69.2545C250.257 69.2126 246.518 69.0717 243.276 68.9357C241.86 69.092 239.799 69.0208 237.731 68.9892L237.518 68.7051L235.79 68.7331C235.093 68.6231 237.117 68.7328 235.878 68.577L235.222 68.7261C235.087 68.6229 230.798 68.4955 233.695 68.403L226.999 68.1445C225.518 68.0807 226.127 68.3368 224.492 68.2089C224.16 68.1197 225.085 68.1769 224.951 68.0737C220.042 67.6601 219.257 68.3212 214.681 67.967L215.07 67.9488C214.681 67.967 214.114 67.9501 213.642 67.9361C213.409 67.9292 213.194 67.9228 213.038 67.9182C212.883 67.9136 212.787 67.9107 212.781 67.9304C213.358 68.2352 213.609 67.826 215.001 68.0658C214.869 68.29 213.254 68.1031 213.338 68.2842C212.272 68.1434 211.636 68.2336 210.698 68.2057C209.108 67.9799 206.818 67.9615 205.624 67.7078C204.84 67.744 203.961 67.9262 202.283 67.8466C201.089 67.6028 202.575 67.6866 200.942 67.529L200.675 67.65C199.332 67.5605 199.548 67.5273 199.598 67.4692C198.165 67.387 198.398 67.5923 196.598 67.4098L197.605 67.3307C196.272 67.3109 195.73 67.2551 193.879 67.1505C193.923 67.0725 194.67 67.1145 195.212 67.1703C194.215 66.9125 193.484 67.1685 192.942 67.1127C193.095 67.1768 194.378 67.2744 193.741 67.3745C192.822 67.2977 191.777 67.4551 191.126 67.2472L192.138 67.1781C190.214 67.1606 191.107 67.2864 188.906 67.0821C189.026 67.0857 188.967 67.0442 189.022 67.0161C187.62 67.1034 185.805 66.8213 183.752 66.6711L184.147 66.663C183.316 66.6581 182.853 66.7435 182.406 66.7104C183.573 66.8641 183.256 66.8845 183.353 67.0262C181.814 66.6928 180.97 67.134 178.444 66.8307C178.488 66.7527 179.106 66.7016 179.795 66.8312C180.674 66.649 180.787 66.4639 182.336 66.4504C181.373 66.4417 180.245 66.3883 180.486 66.3161L180.175 66.5152C179.597 66.4682 179.137 66.4446 178.696 66.4117C178.441 66.5331 179.865 66.7142 178.507 66.7235C176.983 66.6882 177.708 66.4419 177.466 66.524C175.37 66.4617 176.588 66.7062 174.579 66.4977C174.783 66.4938 175.172 66.4855 175.35 66.5206C173.915 66.3291 171.804 66.326 171.394 66.0261C171.611 65.9829 171.655 65.9049 172.203 65.9609L172.178 65.9998C173.772 65.9083 170.852 65.9604 171.36 65.7573C171.463 65.9091 169.436 65.7398 168.523 65.6531L168.805 65.8401C165.741 66.126 168.981 65.5279 165.972 65.3789C164.059 65.3618 166.693 65.4698 165.514 65.5141C164.226 65.3965 163.747 65.2136 161.859 65.1575C161.336 65.0527 160.264 64.8919 160.186 64.7011C159.038 64.7067 156.705 64.3497 156.049 64.479C158.001 64.7949 158.011 64.458 160.295 64.8532L159.646 64.9926C158.059 64.876 156.022 64.7956 154.932 64.6442C155.152 64.7003 155.246 64.7527 155.108 64.7784C152.845 64.6615 152.183 64.8006 149.99 64.5668C149.708 64.37 150.996 64.5074 151.933 64.565C150.523 64.3148 150.448 64.4316 148.255 64.1978C148.146 64.0359 149.733 64.331 149.994 64.1999L147.553 64.048C147.553 64.048 147.554 64.0282 147.554 64.0183C147.189 64.2455 145.7 63.8442 144.206 63.7998C140.675 63.5064 140.122 63.8074 138.159 63.8582C137.637 63.7434 137.483 63.6695 137.712 63.6267C138.573 63.811 138.421 63.7072 138.728 63.6568C137.534 63.5916 136.134 63.1929 136.805 63.1434C134.906 63.0671 137.482 63.3321 136.322 63.3175L133.734 63.0918C134.034 63.2495 134.946 63.356 133.595 63.3456C132.46 63.292 131.918 63.2164 130.439 63.0931C130.655 63.05 129.98 62.8513 131.095 62.9539C130.381 62.8434 129.265 62.7507 128.832 62.847C130.445 63.1032 126.174 62.7482 127.367 63.0514L125.754 62.7952C126.124 62.826 126.168 62.7381 126.71 62.8137C126.263 62.5723 125.384 62.7644 124.817 62.7376C124.251 62.6514 122.773 62.5082 122.65 62.4153C122.135 62.4298 120.891 62.2638 120.661 62.138C119.896 62.1153 120.592 62.2649 120.369 62.3178L117.787 62.0625C117.654 61.9296 117.455 61.5864 117.849 61.5882C116.862 61.5986 117.481 61.8947 116.003 61.7516C116.862 61.6085 114.058 61.3962 115.301 61.2347C114.465 60.9917 112.05 60.7612 110.713 60.6917C109.878 60.7959 112.146 60.9327 112.051 61.1084C108.311 60.8188 108.057 61.3171 105.317 60.9679L106.025 61.0881C104.304 61.037 104.502 61.0329 103.495 61.1022C103.979 60.9083 101.582 60.2816 98.7723 60.0691C98.5301 60.171 100.334 60.4428 99.8627 60.5975L97.9952 60.4626C97.8587 60.4288 98.0687 60.4053 98.3139 60.4027C96.6358 60.333 95.2167 59.7948 94.7192 60.0379L93.0364 59.5217L93.6996 59.7398C93.4633 59.8419 91.5841 59.6968 91.1893 59.7049C89.2653 59.6577 88.5767 59.4884 87.538 59.2294C87.8628 59.368 88.6849 59.6702 87.175 59.5757C87.2106 59.18 84.0196 59.1149 84.0795 58.9084C83.4713 58.8507 82.3962 58.6104 82.3198 58.7669L82.4347 58.5223C82.2751 58.8647 80.0583 58.6104 78.3574 58.5003C78.7715 58.0464 76.4905 58.3457 75.759 57.8081C75.421 58.1155 72.7391 57.6192 72.4205 57.8775C71.1085 57.7592 71.2613 57.4463 70.9306 57.3075L70.3129 57.3685C69.6619 57.1409 67.2071 56.8497 65.7562 56.5785L64.3819 56.7459L63.8854 56.5526C63.6626 56.6055 62.5347 56.5323 63.2226 56.7214L62.4902 56.6203C62.4085 56.9551 61.4561 56.6094 59.9736 56.5951C59.6354 56.5057 59.7334 56.4293 60.0566 56.419C59.3235 56.3377 59.6506 56.1987 59.2547 56.0381C59.7706 56.1824 56.5779 56.3752 58.5462 56.7412C58.6732 56.8937 57.5136 56.8791 56.8003 56.7389L56.3804 56.3792L55.4943 56.6207C54.3604 56.5474 53.8895 56.2953 52.9787 56.1591C53.9152 56.2366 55.0952 55.7657 52.675 55.5153C53.9457 55.6125 54.5828 55.5025 55.2405 55.5022C54.7402 55.4377 54.4967 55.3809 55.2817 55.3249C53.3893 55.2191 54.638 55.4545 52.7714 55.29C52.8931 55.0158 52.3712 54.8714 50.7474 54.5851L51.957 54.9285C51.8963 54.9565 51.8121 54.9738 51.7162 54.9809C52.1742 55.0639 52.3041 55.1174 52.3962 55.2391C52.0267 55.1984 50.21 55.3627 49.9112 55.1554C51.7635 55.8056 46.6106 55.1565 47.7945 55.5587C47.5774 55.6217 46.2714 55.5035 46.1447 55.3411C47.7188 55.2886 44.9864 54.8801 45.2549 54.6996C44.6682 54.7219 46.4699 55.063 45.6801 55.0793C44.7499 54.9921 44.0762 54.7241 43.5666 54.5701L43.9555 54.5618L42.5293 54.2615C42.2866 54.3833 43.9041 54.6793 42.5791 54.6003C42.2352 54.5008 40.9042 54.4215 40.9555 54.304C41.5991 54.1744 41.1545 53.8437 42.2881 53.927C41.352 53.8397 38.372 53.5131 39.5613 53.9353L38.4474 53.7931C39.1408 54.0021 41.0882 54.4667 38.8466 54.2414L38.8723 54.1826L37.3044 54.2253L36.6358 53.9872C36.6514 54.067 36.399 54.1091 35.8273 54.0326C35.6812 53.9192 35.1399 53.8237 35.1912 53.7062C33.5163 53.5275 33.6427 53.6999 33.4196 53.7627C32.4835 53.6754 32.1339 53.5658 32.5801 53.4402C31.3004 53.2434 29.0589 53.0181 28.1937 52.7543C26.4675 52.6931 28.5432 52.8639 27.5238 52.9626C26.0748 52.2252 21.8639 52.0703 19.0614 51.8085C19.7911 52.4055 18.291 51.7757 17.7529 52.1763C18.3655 52.0854 15.1193 51.4632 17.5783 51.6156L16.0811 51.4918C15.0767 51.085 18.5661 51.5755 17.0463 51.0046C15.3657 50.8158 14.2347 51.2484 12.2745 50.8132C12.9587 50.5261 10.7457 50.748 11.2641 50.4063C11.6852 50.3196 12.2259 50.4349 12.7869 50.4714L12.4436 50.3521C8.77714 49.7868 11.3523 50.6569 9.41435 50.6787C7.1728 50.4533 7.66553 50.1704 7.54567 49.9784C7.20241 49.8591 6.06851 49.7857 5.4759 49.8078C6.85886 49.7497 7.98881 50.3586 7.34428 50.518C6.38611 49.9638 4.02074 50.0819 3.40187 50.1826C6.56996 51.0207 5.61747 50.4766 8.59409 51.3189C9.01522 51.2322 8.96696 50.8439 10.7617 51.2147C9.61802 51.27 10.8269 51.4348 11.1409 51.5334C10.8077 51.2756 12.4009 51.5907 12.9517 51.5674C13.441 51.8002 11.8403 51.9411 13.6611 52.2432L14.0336 51.7781C14.7464 51.9382 13.7067 52.1156 15.2358 52.1709C14.3998 52.3346 15.4561 52.604 13.3917 52.4534C15.8223 53.1605 17.177 52.6452 19.1009 52.6925C18.9035 52.6965 18.8775 52.7652 18.6857 52.7793C19.1009 52.6925 19.8453 52.794 20.4063 52.8305C21.6604 53.0859 19.3925 52.9392 19.7164 53.1075L21.7608 53.327C21.802 53.3481 21.8077 53.3582 21.8074 53.3681C22.3457 53.3642 22.8654 53.3797 23.0405 53.5237C22.422 53.6145 22.1729 53.7459 21.758 53.8229L23.9254 53.7286C23.6823 53.8602 25.6754 54.1972 24.146 54.1517L27.3246 54.4347L27.5712 54.7892C28.3359 54.8119 28.3615 54.7531 27.4507 54.617C28.5333 54.8078 32.2945 54.6022 31.686 55.1594C34.1909 55.1743 35.0877 55.3795 38.1079 55.5585C35.7694 55.5783 40.7433 56.2122 38.2781 56.0695C39.7105 56.36 40.0303 56.062 41.1639 56.1453C42.2208 56.395 41.7292 56.6383 40.5697 56.6236L41.9267 56.6342L41.901 56.693L43.0862 56.6488C44.3212 56.9434 43.3337 56.9736 44.6137 57.1604L44.9076 56.9311L45.7673 57.1749C45.4488 57.0265 46.2135 57.0493 47.1443 57.1166L47.1186 57.1753L48.2588 57.239C47.1273 57.2847 49.2885 57.3985 48.7643 57.5317C49.7358 57.64 49.7537 57.6405 51.508 57.7621L51.2092 57.5548C53.5033 57.623 51.2909 57.825 53.1387 58.0188L53.0374 57.8075C55.6806 58.4018 57.5682 58.0612 59.5231 58.4763C58.3949 58.4131 58.6623 58.669 58.688 58.6102C60.3894 58.7005 63.1481 59.0304 64.9196 58.974C65.5435 59.3099 65.6899 59.4135 67.4867 59.7148C68.7989 59.8233 68.9904 59.819 69.4303 59.7032C70.6913 59.9291 73.0866 60.0102 73.1345 60.21C73.4373 60.0801 74.2723 60.3529 74.9796 60.2946L75.1203 60.388L75.0184 60.1965C77.2478 60.8282 78.8349 60.3397 81.0898 60.9225L80.6949 60.9306L81.6567 60.9592C81.8037 61.0429 81.4145 61.0611 81.3638 61.1588L85.8048 61.6181L84.9382 61.4039C85.8746 61.4813 86.5123 61.3515 87.5764 61.5616C85.7854 61.6671 89.055 61.7048 89.3293 61.9311L88.3729 61.9226C89.2399 61.988 89.6415 61.9569 89.5775 61.8294C91.2729 61.9195 90.7187 62.2601 92.2869 62.2075L91.1777 62.1051C90.8527 61.9764 91.6622 61.9013 92.4015 61.9728C92.5735 62.0176 93.096 62.1422 92.5291 62.1056C93.8673 62.1453 95.8564 62.4127 96.4488 62.4006C97.1687 62.5212 96.9208 62.613 96.5316 62.6312C99.3869 62.726 97.8188 62.7785 100.68 62.8735L100.63 62.9613L101.617 62.9311L103.007 63.2501L102.509 63.0866C103.446 63.1541 104.033 63.1318 105.123 63.2832L104.677 63.389C107.321 63.537 107.718 63.8861 110.234 63.9113C110.406 63.956 110.011 63.9642 109.808 63.968C112.146 63.9482 111.554 64.3671 113.906 64.2981C113.761 64.3335 114.01 64.4103 113.92 64.4374L114.99 64.4394L114.901 64.6153L115.786 64.4234L116.43 64.6707L116.85 64.6137C117.967 65.0635 119.591 64.9333 121.134 65.3362L120.879 65.0806C124.829 64.9599 129.85 66.0217 134.599 66.1727L134.504 66.3385L136.473 66.278C137.513 66.4974 135.836 66.3781 136.156 66.4967C138.259 66.5592 137.04 66.3048 139.482 66.4369C140.726 66.6424 139.043 66.5329 138.45 66.5451C140.738 66.6329 144.111 66.7926 145.725 67.0092C145.762 66.9905 145.864 66.9638 145.781 66.9514C147.31 66.9968 149.313 67.215 150.99 67.3343C150.945 67.4123 150.528 67.39 150.109 67.3776C150.712 67.4351 151.533 67.5488 152.055 67.5048L151.418 67.6049C152.706 67.7325 155.192 67.7865 155.473 67.9734C155.32 67.8994 155.389 67.7725 156.505 67.8652C157.106 68.1707 159.539 67.9851 161.319 68.2265C161.103 68.2696 159.795 68.201 160.165 68.2318C161.058 68.3576 161.868 68.2824 162.658 68.2563L162.41 68.3382L166.58 68.4621C167.188 68.748 170.509 68.6681 170.216 68.838C171.702 68.9417 168.972 68.6522 170.853 68.7379C171.352 68.8717 172.556 68.7885 172.467 68.9545L172.264 68.9484L173.577 69.0271L172.743 69.1313C173.878 69.165 174.712 69.0609 174.776 68.9437C175.841 69.1043 177.365 69.1199 177.85 69.3029L177.449 69.3207C180.459 69.4498 182.414 70.0733 184.791 69.9555C184.969 69.9906 184.944 70.0295 184.574 69.9987L186.43 70.1232L185.979 70.209L189.064 70.2213L189.02 70.2994C191.048 70.4787 194.231 70.5931 196.847 70.7006L196.452 70.7186C199.309 70.744 199.202 70.9293 201.294 70.9518C201.222 70.9695 201.15 70.9772 201.072 70.9749L202.953 71.0705L202.533 71.1274C203.929 71.0301 206.503 71.543 205.647 71.3588C206.438 71.3228 207.795 71.3036 208.031 71.2214C210.079 71.3219 208.53 71.3453 209.793 71.482C211.274 71.5657 211.54 71.4447 213.544 71.6233L213.5 71.7013C214.438 71.7292 215.024 71.7366 216.332 71.7656L215.943 71.7838C218.085 71.7284 218.599 72.1504 220.287 71.893C221.181 71.9989 222.883 72.0396 222.795 72.1957C225.461 72.2253 227.53 72.2372 230.172 72.2661C230.588 72.5364 230.739 72.2731 232.336 72.4792L232.22 72.3369C235.954 72.4578 240.232 72.9618 244.355 73.0645L244.464 73.2066L245.293 73.0923C247.508 73.2078 250.051 73.3329 252.481 73.4547C254.913 73.527 257.231 73.5958 258.999 73.6484C260.16 73.6035 261.922 73.4773 263.761 73.5717L263.569 73.5858C266.774 73.5818 270.164 73.6032 273.657 73.7764C273.44 73.8295 273.785 73.8794 273.39 73.9074C274.225 73.7735 275.439 73.9484 276.186 73.9706L275.311 73.8454C276.307 73.7361 277.731 73.8975 278.236 74.0117L279.812 73.8998C279.913 73.9127 280.074 73.9373 280.097 73.9579L280.38 73.8869L281.211 74.0802C281.601 74.0422 283.683 74.0148 284.34 73.8459C284.487 73.9098 285.956 73.9732 284.82 73.9891L290.563 74.0903L289.668 74.0141C289.559 73.872 291.289 73.7945 292.178 73.8705C291.003 73.9744 292.076 74.0658 292.575 74.1798C293.355 74.1137 291.897 74.0506 292.312 73.9736C293.296 73.8838 295.371 73.8562 295.89 73.9212L295.302 73.9732C296.637 73.9335 297.245 74.1797 298.561 74.1791C299.742 74.0754 300.611 74.1905 300.373 73.9453C302.079 73.9067 301.026 74.1135 301.581 74.1499C302.386 74.0448 304.769 74.1354 305.07 74.2634C306.008 73.8945 309.659 74.3601 310.015 74.0533L311.409 74.2137C311.454 74.1357 311.734 73.9456 312.872 73.9001C313.94 73.9814 313.684 74.1226 314.004 74.2115L314.731 73.9057C320.888 74.1779 329.02 73.9633 335.781 74.0154C338.799 73.8769 342.597 73.6426 346.12 73.5985L345.73 73.6464L349.228 73.6511L346.689 73.5757C347.456 73.5092 348.05 73.4376 348.792 73.42C352.63 73.4546 357.757 73.3491 362.491 73.0037C365.556 72.4897 364.529 73.2527 367.459 72.8537C367.206 72.8958 367.115 72.9625 366.886 73.0053C370.044 72.7619 371.76 72.5946 374.93 72.1532C374.565 72.559 376.991 72.016 376.703 72.2356L376.965 72.0649C377.669 72.1156 379.328 72.0458 379.091 72.1776L380.486 71.8918L380.607 72.0441C382.458 71.9404 386.434 71.5626 387.412 71.8396C391.997 71.2914 399.237 70.7031 404.989 70.3086C405.796 70.1143 407.476 69.9262 408.79 69.7668L410.194 69.8284C411.527 69.62 412.939 69.2057 414.182 69.2128C414.175 69.2424 414.127 69.2608 414.037 69.278C415.394 69.0901 416.686 69.069 417.951 68.7396C419.438 68.5953 420.887 68.5491 420.437 68.8035C420.502 68.617 421.293 68.5512 422.066 68.5147C422.839 68.4682 423.592 68.4806 423.592 68.4806C423.592 68.4806 428.362 67.9082 435.81 66.9987C439.534 66.4348 443.924 65.7717 448.723 65.0513C451.122 64.6167 453.623 64.1652 456.19 63.696C457.477 63.4564 458.775 63.2173 460.092 62.9787C461.404 62.6903 462.734 62.4025 464.07 62.1148C474.756 59.8632 486.01 56.8349 495.665 53.0548C498.074 52.0749 500.396 51.1916 502.575 50.1156C503.666 49.6025 504.727 49.1281 505.741 48.6028C506.756 48.0576 507.734 47.5312 508.676 47.0235C512.429 44.8932 515.511 42.7728 517.651 40.783C518.196 40.1346 519.783 38.6442 519.082 38.9012C520.313 37.7375 520.983 37.5292 521.222 36.9312C520.943 37.2503 520.809 37.3455 520.686 37.4411C520.57 37.5269 520.503 37.5646 520.461 37.5633C520.384 37.561 520.424 37.4233 520.47 37.2759C520.551 36.9609 520.624 36.725 519.774 37.3544C520.119 37.0274 520.44 36.66 520.788 36.2438C520.826 36.1458 520.759 36.2132 520.641 36.3585C520.529 36.494 520.362 36.6875 520.195 36.8809C519.861 37.2479 519.523 37.5652 519.602 37.3096L519.439 37.9793C518.569 38.6677 518.071 38.9207 517.739 39.0398C517.362 39.4452 517.069 39.8432 516.625 40.3161C516.18 40.7889 515.578 41.3265 514.559 41.812L515.102 41.4413C513.493 42.4747 514.057 41.7971 513.706 41.9355L514.06 41.7178L512.665 42.3609C513.721 41.8566 515.335 40.4464 514.451 41.0351C512.517 42.1283 514.965 40.8222 513.549 41.782C512.665 42.3708 512.868 41.98 512.884 41.8317C512.354 42.173 511.813 42.4546 511.278 42.766C511.297 42.5384 512.348 42.1729 511.655 42.3408L509.666 43.6902C509.207 43.4484 507.479 45.0536 506.468 45.0633C507.922 44.2137 506.31 44.9594 506.515 44.6877C505.914 44.9873 505.319 45.3069 504.712 45.5864L502.9 46.4055C502.545 46.4941 503.832 45.8281 503.286 46.0996C502.581 46.2671 502.18 46.7114 501.81 46.8691C501.475 46.8889 499.096 48.0681 499.149 47.6729C496.645 48.4317 498.157 48.4865 495.821 49.2107C495.495 49.1315 497.649 48.4516 496.597 48.6485L494.211 49.6588C494.42 49.4766 494.638 49.1656 495.545 48.8553C493.924 49.4519 492.467 49.8153 491.117 50.1521C489.768 50.4791 488.521 50.7793 487.293 51.08C484.825 51.6118 482.442 52.1362 479.469 53.1787C478.607 53.2126 480.059 52.849 480.649 52.5193C478.507 53.3584 476.964 53.5804 475.509 53.8347C474.055 54.0693 472.674 54.2564 470.836 54.7671L470.782 54.9639C465.588 55.6825 459.405 57.5026 453.543 58.3898L454.25 58.3611C453.457 58.6848 452.157 58.9636 451.198 59.2327C451.044 59.1785 451.877 58.737 450.184 59.1529C450.537 59.1436 451.257 59.0559 451.05 59.1787C448.529 59.5204 444.614 60.0587 440.3 60.7638C435.985 61.5085 431.255 62.1218 427.114 62.6336C415.928 64.3744 403.76 65.3818 392.75 66.4632C394.429 66.2948 393.717 66.7102 392.454 66.752C388.987 66.52 386.451 67.3473 382.916 67.2125C376.499 67.8452 370.771 67.8337 364.795 68.529L364.68 68.3768C363.79 68.3504 363.547 68.4721 362.612 68.5336L362.638 68.4848C360.424 68.538 357.748 68.8355 356.481 68.8275L356.398 69.0036C355.08 69.0835 355.713 68.9039 354.369 69.0723L354.407 68.9842L352.833 69.2251C352.986 68.9221 349.121 69.3826 348.073 69.2523C346.372 69.3604 343.142 69.5918 340.564 69.6144C340.084 69.4712 336.924 69.5757 334.909 69.5654C332.946 69.636 330.563 69.7239 328.043 69.8177C325.525 69.8421 322.875 69.8724 320.375 69.8973L320.465 70.0885L319.161 70.1192C319.161 70.1192 319.007 70.0551 319.205 70.0312C318.201 69.8327 316.195 70.1302 315.146 70.0197C315.805 70.1782 316.06 70.0369 316.802 70.0292C317.87 70.1006 316.847 70.2984 315.403 70.2257L315.434 70.187L314.444 70.2964C314.334 70.1543 313.439 70.0979 313.33 69.9558C309.034 70.0266 306.1 70.3759 301.673 70.2542C302.132 70.0992 298.485 70.2785 299.384 70.0077C296.721 70.0972 299.82 70.2289 298.601 70.4208C297.86 70.4087 297.074 70.4846 296.946 70.3717C297.295 70.3027 296.347 70.2051 296.951 70.1834L295.175 70.1901C295.009 70.1653 295.398 70.1273 295.596 70.1133C291.968 70.2535 289.181 69.9029 285.924 70.0442C285.681 70.1461 287.214 70.0825 286.972 70.1745C283.696 70.3549 284.09 69.9798 281.037 70.1073L281.668 69.9772C280.679 70.057 280.245 70.1929 278.635 70.0458C278.353 69.8787 280.013 69.9479 280.792 69.8719C279.68 69.8686 276.865 69.8345 277.721 69.9988C276.387 70.0187 275.907 69.8656 275.191 69.8146C275.166 69.8535 276.431 69.9506 275.652 70.0068C273.844 69.8737 271.042 69.8202 268.825 69.7643C268.844 69.7251 268.69 69.6611 268.888 69.6471C267.101 69.8122 267.297 69.4709 264.852 69.4577L264.783 69.3466Z" fill="#F72D28"/>
<path d="M246.594 61.1637L248.091 61.2334C248.091 61.2334 248.161 61.1537 248.85 61.1338L246.594 61.1637Z" fill="#F72D28"/>
<path d="M317.508 63.0465C317.697 63.0365 317.877 63.0266 318.047 63.0166C317.687 63.0166 317.568 63.0266 317.508 63.0465Z" fill="#F72D28"/>
<path d="M334.739 63.0562C333.511 63.0761 334.599 63.1358 335.208 63.1756C335.238 63.1458 335.208 63.1059 334.739 63.0562Z" fill="#F72D28"/>
<path d="M206.42 60.3773C206.679 60.3773 206.839 60.3474 206.799 60.3076C206.45 60.3275 206.37 60.3474 206.42 60.3773Z" fill="#F72D28"/>
<path d="M95.4688 55.5464C95.6085 55.5663 95.7382 55.5763 95.9078 55.6061C95.828 55.5862 95.6683 55.5663 95.4688 55.5464Z" fill="#F72D28"/>
<path d="M101.602 56.1838C101.901 56.2037 102.29 56.2136 102.859 56.2136C102.31 56.1738 101.921 56.1738 101.602 56.1838Z" fill="#F72D28"/>
<path d="M233.328 61.1439C233.737 61.1439 234.146 61.1439 234.496 61.124C233.857 61.1041 233.548 61.124 233.328 61.1439Z" fill="#F72D28"/>
<path d="M104.125 56.2236L105.672 56.3232C105.672 56.3232 105.702 56.3033 105.702 56.2834L104.125 56.2336V56.2236Z" fill="#F72D28"/>
<path d="M93.5234 55.4266C94.1225 55.4665 94.9412 55.5163 95.4703 55.5461C94.7016 55.4465 94.0925 55.4167 93.5234 55.4266Z" fill="#F72D28"/>
<path d="M165.68 59.0521C165.68 59.0521 165.779 59.0521 165.849 59.0521C167.057 59.0123 166.298 59.0223 165.68 59.0521Z" fill="#F72D28"/>
<path d="M110.914 56.1537C110.974 56.1537 111.054 56.1637 111.124 56.1736L111.573 56.1338L110.914 56.1537Z" fill="#F72D28"/>
<path d="M86.8342 55.0184C87.1235 55.0184 87.393 55.0284 87.6125 55.0184C87.373 54.9985 87.0936 54.9786 86.7344 54.9487C86.8142 54.9786 86.8342 55.0085 86.8342 55.0184Z" fill="#F72D28"/>
<path d="M142.447 57.8271C142.008 57.8869 141.838 57.9267 141.828 57.9665C142.337 57.9864 142.676 57.9665 142.447 57.8271Z" fill="#F72D28"/>
<path d="M292.713 25.8641L148.172 31.1768L150.67 98.8111L295.211 93.4985L292.713 25.8641Z" fill="#007AFF"/>
<path d="M203.017 55.3578C205.434 57.7682 206.632 61.1248 206.632 65.4376V84.2128H198.525V66.5332C198.525 64.0332 197.886 62.1109 196.618 60.7861C195.35 59.4614 193.603 58.7941 191.406 58.7941C189.21 58.7941 187.462 59.4614 186.164 60.7861C184.866 62.1109 184.227 64.0332 184.227 66.5332V84.2128H176.12V66.5332C176.12 64.0332 175.481 62.1109 174.213 60.7861C172.935 59.4614 171.198 58.7941 169.002 58.7941C166.805 58.7941 164.998 59.4614 163.7 60.7861C162.402 62.1109 161.763 64.0332 161.763 66.5332V84.2128H153.656V52.2103H161.763V56.0849C162.802 54.7402 164.149 53.6745 165.787 52.9075C167.424 52.1406 169.231 51.7521 171.198 51.7521C173.704 51.7521 175.951 52.2801 177.918 53.3358C179.884 54.3916 181.412 55.9056 182.49 57.8678C183.529 56.0152 185.046 54.541 187.033 53.4155C189.02 52.3 191.176 51.7422 193.493 51.7422C197.426 51.7422 200.601 52.9474 203.017 55.3478V55.3578Z" fill="#3D3D3D"/>
<path d="M217.93 82.6884C215.463 81.3238 213.517 79.3815 212.109 76.8815C210.701 74.3815 209.992 71.493 209.992 68.216C209.992 64.9391 210.721 62.0506 212.169 59.5506C213.616 57.0505 215.593 55.1083 218.099 53.7437C220.605 52.3792 223.411 51.6919 226.496 51.6919C229.581 51.6919 232.386 52.3792 234.892 53.7437C237.398 55.1083 239.385 57.0505 240.833 59.5506C242.281 62.0506 243 64.9391 243 68.216C243 71.493 242.251 74.3815 240.773 76.8815C239.285 79.3815 237.279 81.3238 234.753 82.6884C232.227 84.0529 229.401 84.7402 226.266 84.7402C223.131 84.7402 220.396 84.0529 217.93 82.6884ZM230.41 76.6225C231.698 75.9154 232.736 74.8396 233.505 73.4153C234.273 71.991 234.663 70.2579 234.663 68.216C234.663 65.1781 233.864 62.8375 232.257 61.194C230.649 59.5605 228.692 58.7438 226.376 58.7438C224.06 58.7438 222.123 59.5605 220.555 61.194C218.988 62.8275 218.209 65.1682 218.209 68.216C218.209 71.2639 218.968 73.5946 220.495 75.2381C222.023 76.8715 223.94 77.6883 226.256 77.6883C227.724 77.6883 229.102 77.3297 230.4 76.6225H230.41Z" fill="#3D3D3D"/>
<path d="M258.839 53.1962C260.516 52.23 262.443 51.752 264.6 51.752V60.2481H262.453C259.907 60.2481 257.98 60.8457 256.692 62.041C255.394 63.2362 254.755 65.3179 254.755 68.2761V84.2225H246.648V52.2201H254.755V57.1903C255.794 55.497 257.162 54.1623 258.839 53.2062V53.1962Z" fill="#3D3D3D"/>
<path d="M297.318 70.6366H273.865C274.055 72.9474 274.864 74.7602 276.301 76.065C277.729 77.3698 279.486 78.0271 281.573 78.0271C284.588 78.0271 286.725 76.7423 288.003 74.1526H296.749C295.82 77.2303 294.043 79.7702 291.417 81.7523C288.792 83.7344 285.567 84.7304 281.743 84.7304C278.658 84.7304 275.882 84.0432 273.436 82.6786C270.98 81.314 269.073 79.3718 267.705 76.8717C266.337 74.3717 265.648 71.4832 265.648 68.2063C265.648 64.9293 266.327 61.991 267.675 59.4811C269.023 56.981 270.92 55.0487 273.346 53.7041C275.782 52.3594 278.578 51.6821 281.743 51.6821C284.908 51.6821 287.524 52.3395 289.94 53.6443C292.356 54.9491 294.223 56.8117 295.561 59.2221C296.889 61.6325 297.558 64.3915 297.558 67.5091C297.558 68.6644 297.478 69.7003 297.328 70.6266L297.318 70.6366ZM289.151 65.2082C289.111 63.1265 288.362 61.4631 286.895 60.2081C285.427 58.9531 283.63 58.3257 281.513 58.3257C279.506 58.3257 277.819 58.9332 276.451 60.1484C275.083 61.3635 274.245 63.0468 273.935 65.2082H289.161H289.151Z" fill="#3D3D3D"/>
<path d="M119.148 152.259C116.682 150.895 114.735 148.952 113.328 146.452C111.92 143.952 111.211 141.064 111.211 137.787C111.211 134.51 111.93 131.621 113.387 129.121C114.835 126.621 116.812 124.679 119.318 123.315C121.824 121.95 124.63 121.263 127.715 121.263C130.8 121.263 133.605 121.95 136.111 123.315C138.617 124.679 140.604 126.621 142.052 129.121C143.499 131.621 144.228 134.51 144.228 137.787C144.228 141.064 143.479 143.952 142.002 146.452C140.514 148.952 138.507 150.895 135.981 152.259C133.455 153.624 130.62 154.311 127.495 154.311C124.37 154.311 121.624 153.624 119.158 152.259H119.148ZM131.628 146.193C132.916 145.486 133.955 144.41 134.723 142.986C135.492 141.562 135.882 139.829 135.882 137.787C135.882 134.749 135.083 132.408 133.475 130.765C131.868 129.131 129.911 128.315 127.595 128.315C125.278 128.315 123.342 129.131 121.774 130.765C120.217 132.398 119.428 134.739 119.428 137.787C119.428 140.835 120.187 143.165 121.714 144.809C123.242 146.442 125.159 147.259 127.475 147.259C128.943 147.259 130.32 146.901 131.618 146.193H131.628Z" fill="#3D3D3D"/>
<path d="M160.295 122.737C162.132 121.751 164.219 121.263 166.575 121.263C169.321 121.263 171.797 121.94 174.013 123.285C176.23 124.629 177.987 126.552 179.285 129.032C180.573 131.512 181.222 134.39 181.222 137.667C181.222 140.944 180.573 143.843 179.285 146.363C177.997 148.883 176.24 150.845 174.013 152.229C171.797 153.614 169.311 154.311 166.575 154.311C164.219 154.311 162.142 153.833 160.355 152.867C158.558 151.901 157.1 150.695 155.982 149.231V169.042H147.875V121.791H155.982V126.412C157.02 124.948 158.458 123.723 160.295 122.747V122.737ZM171.757 132.677C170.968 131.273 169.92 130.207 168.632 129.47C167.344 128.743 165.936 128.374 164.429 128.374C162.921 128.374 161.583 128.753 160.285 129.5C158.987 130.247 157.949 131.343 157.16 132.767C156.371 134.191 155.972 135.865 155.972 137.797C155.972 139.729 156.361 141.402 157.16 142.827C157.959 144.251 158.997 145.337 160.285 146.094C161.573 146.851 162.961 147.219 164.429 147.219C165.896 147.219 167.334 146.831 168.632 146.064C169.92 145.297 170.968 144.191 171.757 142.767C172.546 141.343 172.945 139.649 172.945 137.687C172.945 135.725 172.546 134.092 171.757 132.687V132.677Z" fill="#3D3D3D"/>
<path d="M197.235 122.737C199.072 121.751 201.159 121.263 203.515 121.263C206.25 121.263 208.737 121.94 210.953 123.285C213.169 124.629 214.927 126.552 216.225 129.032C217.513 131.512 218.161 134.39 218.161 137.667C218.161 140.944 217.513 143.843 216.225 146.363C214.927 148.883 213.179 150.845 210.953 152.229C208.737 153.614 206.25 154.311 203.515 154.311C201.159 154.311 199.082 153.833 197.285 152.867C195.488 151.901 194.03 150.695 192.912 149.231V169.042H184.805V121.791H192.912V126.412C193.95 124.948 195.388 123.723 197.225 122.747L197.235 122.737ZM208.697 132.677C207.908 131.273 206.859 130.207 205.572 129.47C204.274 128.743 202.876 128.374 201.368 128.374C199.861 128.374 198.523 128.753 197.225 129.5C195.927 130.247 194.889 131.343 194.1 132.767C193.311 134.191 192.912 135.865 192.912 137.797C192.912 139.729 193.311 141.402 194.1 142.827C194.889 144.251 195.937 145.337 197.225 146.094C198.513 146.841 199.901 147.219 201.368 147.219C202.836 147.219 204.274 146.831 205.572 146.064C206.859 145.297 207.908 144.191 208.697 142.767C209.485 141.343 209.885 139.649 209.885 137.687C209.885 135.725 209.485 134.092 208.697 132.687V132.677Z" fill="#3D3D3D"/>
<path d="M227.664 152.259C225.198 150.895 223.251 148.952 221.843 146.452C220.435 143.952 219.727 141.064 219.727 137.787C219.727 134.51 220.455 131.621 221.903 129.121C223.351 126.621 225.328 124.679 227.844 123.315C230.35 121.95 233.155 121.263 236.24 121.263C239.325 121.263 242.131 121.95 244.637 123.315C247.143 124.679 249.12 126.621 250.577 129.121C252.025 131.621 252.744 134.51 252.744 137.787C252.744 141.064 252.005 143.952 250.517 146.452C249.03 148.952 247.023 150.895 244.497 152.259C241.971 153.624 239.146 154.311 236.011 154.311C232.876 154.311 230.14 153.624 227.674 152.259H227.664ZM240.144 146.193C241.432 145.486 242.47 144.41 243.239 142.986C244.008 141.562 244.397 139.829 244.397 137.787C244.397 134.749 243.598 132.408 241.991 130.765C240.384 129.131 238.427 128.315 236.11 128.315C233.794 128.315 231.857 129.131 230.29 130.765C228.722 132.398 227.943 134.739 227.943 137.787C227.943 140.835 228.702 143.165 230.23 144.809C231.757 146.452 233.674 147.259 235.991 147.259C237.458 147.259 238.836 146.901 240.134 146.193H240.144Z" fill="#3D3D3D"/>
<path d="M268.581 122.767C270.259 121.8 272.185 121.322 274.342 121.322V129.818H272.195C269.649 129.818 267.723 130.416 266.435 131.611C265.147 132.807 264.498 134.888 264.498 137.846V153.793H256.391V121.79H264.498V126.761C265.536 125.067 266.904 123.733 268.581 122.776V122.767Z" fill="#3D3D3D"/>
<path d="M286.899 128.424V143.902C286.899 144.978 287.159 145.765 287.678 146.243C288.197 146.721 289.076 146.97 290.314 146.97H294.078V153.783H288.976C282.147 153.783 278.722 150.466 278.722 143.843V128.414H274.898V121.77H278.722V113.852H286.889V121.77H294.068V128.414H286.889L286.899 128.424Z" fill="#3D3D3D"/>
<path d="M327.892 121.78V153.783H319.725V149.739C318.686 151.124 317.318 152.209 315.641 153.006C313.964 153.793 312.137 154.191 310.17 154.191C307.664 154.191 305.437 153.663 303.51 152.598C301.584 151.542 300.066 149.978 298.968 147.916C297.869 145.855 297.32 143.404 297.32 140.546V121.771H305.427V139.39C305.427 141.93 306.066 143.892 307.334 145.257C308.612 146.621 310.35 147.309 312.546 147.309C314.743 147.309 316.54 146.621 317.818 145.257C319.096 143.892 319.725 141.94 319.725 139.39V121.771H327.892V121.78Z" fill="#3D3D3D"/>
<path d="M360.615 124.928C362.971 127.338 364.149 130.695 364.149 135.008V153.783H356.042V136.104C356.042 133.564 355.403 131.611 354.135 130.237C352.857 128.872 351.12 128.185 348.924 128.185C346.727 128.185 344.92 128.872 343.622 130.237C342.324 131.601 341.685 133.554 341.685 136.104V153.783H333.578V121.781H341.685V125.765C342.763 124.38 344.141 123.295 345.829 122.498C347.506 121.711 349.353 121.312 351.36 121.312C355.184 121.312 358.269 122.518 360.625 124.918L360.615 124.928Z" fill="#3D3D3D"/>
<path d="M370.09 116.611C369.141 115.705 368.672 114.579 368.672 113.235C368.672 111.89 369.141 110.764 370.09 109.858C371.038 108.952 372.226 108.503 373.654 108.503C375.082 108.503 376.27 108.962 377.218 109.858C378.167 110.764 378.636 111.89 378.636 113.235C378.636 114.579 378.167 115.705 377.218 116.611C376.27 117.517 375.082 117.966 373.654 117.966C372.226 117.966 371.038 117.517 370.09 116.611ZM377.648 121.781V153.783H369.54V121.781H377.648Z" fill="#3D3D3D"/>
<path d="M392.749 128.424V143.902C392.749 144.978 393.008 145.765 393.527 146.243C394.047 146.721 394.925 146.97 396.163 146.97H399.927V153.783H394.835C388.006 153.783 384.582 150.466 384.582 143.843V128.414H380.758V121.77H384.582V113.852H392.749V121.77H399.927V128.414H392.749V128.424Z" fill="#3D3D3D"/>
<path d="M404.011 116.611C403.063 115.705 402.594 114.579 402.594 113.235C402.594 111.89 403.063 110.764 404.011 109.858C404.96 108.952 406.148 108.503 407.576 108.503C409.004 108.503 410.192 108.962 411.14 109.858C412.089 110.764 412.558 111.89 412.558 113.235C412.558 114.579 412.089 115.705 411.14 116.611C410.192 117.517 409.004 117.966 407.576 117.966C406.148 117.966 404.96 117.517 404.011 116.611ZM411.569 121.781V153.783H403.462V121.781H411.569Z" fill="#3D3D3D"/>
<path d="M446.833 140.207H423.381C423.571 142.518 424.379 144.33 425.817 145.635C427.245 146.94 429.002 147.597 431.089 147.597C434.104 147.597 436.24 146.313 437.518 143.723H446.264C445.336 146.801 443.559 149.341 440.933 151.323C438.307 153.305 435.082 154.301 431.258 154.301C428.173 154.301 425.398 153.613 422.952 152.249C420.496 150.884 418.589 148.942 417.221 146.442C415.853 143.942 415.164 141.054 415.164 137.777C415.164 134.5 415.843 131.561 417.191 129.051C418.539 126.551 420.436 124.619 422.862 123.274C425.298 121.93 428.093 121.252 431.258 121.252C434.423 121.252 437.039 121.91 439.455 123.215C441.871 124.519 443.738 126.382 445.076 128.792C446.404 131.203 447.073 133.962 447.073 137.079C447.073 138.235 446.993 139.271 446.843 140.197L446.833 140.207ZM438.667 134.779C438.627 132.697 437.878 131.033 436.41 129.778C434.942 128.523 433.145 127.896 431.029 127.896C429.022 127.896 427.335 128.504 425.967 129.719C424.599 130.934 423.76 132.617 423.451 134.779H438.677H438.667Z" fill="#3D3D3D"/>
<path d="M455.871 152.886C453.784 151.94 452.137 150.665 450.919 149.042C449.701 147.428 449.042 145.635 448.922 143.673H457.089C457.239 144.908 457.848 145.924 458.916 146.731C459.974 147.538 461.302 147.946 462.88 147.946C464.457 147.946 465.625 147.637 466.494 147.02C467.362 146.402 467.792 145.615 467.792 144.649C467.792 143.613 467.263 142.826 466.194 142.309C465.136 141.791 463.449 141.223 461.132 140.605C458.736 140.028 456.779 139.43 455.252 138.812C453.724 138.195 452.416 137.249 451.308 135.984C450.21 134.709 449.661 132.996 449.661 130.844C449.661 129.071 450.17 127.458 451.198 125.994C452.217 124.529 453.684 123.374 455.601 122.527C457.518 121.681 459.765 121.252 462.35 121.252C466.174 121.252 469.219 122.209 471.496 124.111C473.772 126.013 475.03 128.593 475.26 131.82H467.502C467.382 130.545 466.853 129.539 465.915 128.792C464.966 128.045 463.708 127.667 462.121 127.667C460.653 127.667 459.525 127.936 458.736 128.474C457.947 129.012 457.548 129.769 457.548 130.725C457.548 131.8 458.087 132.617 459.165 133.175C460.244 133.733 461.921 134.3 464.207 134.878C466.524 135.456 468.431 136.053 469.938 136.671C471.446 137.289 472.744 138.245 473.842 139.53C474.94 140.824 475.509 142.528 475.549 144.639C475.549 146.492 475.04 148.145 474.012 149.609C472.983 151.074 471.526 152.219 469.609 153.046C467.692 153.872 465.465 154.291 462.919 154.291C460.374 154.291 457.937 153.823 455.851 152.876L455.871 152.886Z" fill="#3D3D3D"/>
</svg>
